<?xml version="1.0" encoding="UTF-8"?><svg id="Calque_1" xmlns="http://www.w3.org/2000/svg" viewBox="0 0 415.96 60.48"><defs><style>.cls-1{fill:none;}.cls-1,.cls-2,.cls-3{stroke-width:0px;}.cls-2{fill:#fff;}.cls-3{fill:#e7364b;}</style></defs><path class="cls-3" d="m13.11,32.94h4l.75-4.07h-4.02l-.73,4.07Zm11.24-4.07l-.73,4.07h5.89v6.15h-7.03l-1.79,9.47h-6.49l1.77-9.47h-4.07l-1.72,9.47H3.71l1.74-9.47H0v-6.15h6.64l.75-4.07H1.62v-6.3h6.95l1.74-9.42h6.49l-1.79,9.42h4.02l1.74-9.42h6.49l-1.77,9.42h5.55v6.3h-6.71Z"/><path class="cls-3" d="m47.73,49.05c-4.49,0-7.89-1.21-10.21-3.63-2.32-2.42-3.48-5.9-3.48-10.44s1.25-8.08,3.76-10.59c2.5-2.5,6.07-3.76,10.68-3.76,3.18,0,6.18.7,8.99,2.08l-2.79,7c-1.15-.5-2.21-.9-3.17-1.2-.97-.3-1.98-.45-3.03-.45-1.54,0-2.72.6-3.56,1.79-.84,1.2-1.26,2.88-1.26,5.06,0,4.39,1.62,6.59,4.87,6.59,2.78,0,5.44-.81,8-2.42v7.54c-2.44,1.61-5.37,2.42-8.79,2.42Z"/><path class="cls-3" d="m74.67,27.07c-1.11,0-2.05.35-2.8,1.05-.75.7-1.19,1.8-1.32,3.31h8.14c-.03-1.32-.41-2.38-1.13-3.17-.72-.79-1.68-1.19-2.89-1.19Zm.56,21.97c-4.57,0-8.12-1.22-10.65-3.65-2.53-2.43-3.79-5.89-3.79-10.38s1.17-8.19,3.51-10.67c2.34-2.48,5.69-3.72,10.03-3.72s7.33,1.08,9.58,3.24c2.25,2.16,3.38,5.26,3.38,9.31v4.22h-16.94c.06,1.54.63,2.74,1.68,3.61,1.06.87,2.5,1.31,4.32,1.31,1.66,0,3.19-.16,4.59-.47,1.4-.31,2.91-.85,4.54-1.61v6.81c-1.49.76-3.02,1.28-4.6,1.57-1.58.29-3.47.44-5.67.44Z"/><path class="cls-3" d="m113.85,40.13c0,2.94-1,5.16-3,6.66-2,1.5-4.88,2.25-8.62,2.25-2.03,0-3.8-.11-5.31-.33-1.5-.22-3.04-.62-4.6-1.2v-7.58c1.47.65,3.08,1.18,4.83,1.6,1.75.42,3.31.63,4.69.63,2.05,0,3.08-.47,3.08-1.41,0-.48-.29-.92-.86-1.3s-2.24-1.12-5-2.22c-2.52-1.03-4.28-2.21-5.28-3.52-1-1.32-1.5-2.98-1.5-5,0-2.55.98-4.54,2.96-5.96,1.97-1.42,4.76-2.13,8.36-2.13,1.81,0,3.51.2,5.1.59,1.59.4,3.24.97,4.95,1.73l-2.57,6.1c-1.26-.56-2.59-1.05-4-1.44s-2.55-.59-3.44-.59c-1.55,0-2.33.38-2.33,1.14,0,.47.27.87.81,1.2.54.33,2.1,1,4.69,2.02,1.92.79,3.36,1.57,4.3,2.33.94.76,1.64,1.65,2.08,2.68.44,1.03.67,2.27.67,3.74Z"/><path class="cls-3" d="m132.55,41.56c1.28,0,2.8-.31,4.58-.94v6.9c-1.28.55-2.49.94-3.65,1.17s-2.51.35-4.06.35c-3.18,0-5.48-.78-6.88-2.34-1.41-1.56-2.11-3.95-2.11-7.18v-11.31h-3.32v-3.85l4.22-2.98,2.45-5.77h6.2v5.5h6.74v7.1h-6.74v10.68c0,1.78.86,2.66,2.57,2.66Z"/><path class="cls-3" d="m155.23,28.07c-1.39,0-2.36.5-2.92,1.49-.56.99-.86,2.47-.91,4.42v.75c0,2.36.32,4.06.94,5.11.63,1.05,1.62,1.57,2.98,1.57,1.21,0,2.09-.52,2.64-1.56.55-1.04.82-2.77.82-5.17s-.27-4.05-.82-5.08-1.46-1.54-2.74-1.54Zm3.17,20.98c-1.39,0-2.63-.23-3.73-.69-1.1-.46-2.19-1.29-3.27-2.48h-.44c.29,1.92.44,3.12.44,3.59v11.02h-9.47V21.11h7.7l1.33,3.49h.44c1.76-2.65,4.19-3.97,7.29-3.97s5.42,1.26,7.15,3.78c1.73,2.52,2.59,5.98,2.59,10.37s-.9,7.91-2.7,10.45c-1.8,2.54-4.24,3.82-7.33,3.82Z"/><path class="cls-3" d="m184.71,42.36c1.15,0,2.13-.36,2.94-1.09.82-.73,1.22-1.67,1.22-2.84v-2.13l-2.18.1c-3.12.11-4.68,1.26-4.68,3.44,0,1.68.9,2.52,2.69,2.52Zm7.03,6.2l-1.82-3.63h-.19c-1.28,1.58-2.58,2.66-3.9,3.25-1.32.58-3.04.87-5.14.87-2.58,0-4.62-.78-6.11-2.33-1.49-1.55-2.23-3.73-2.23-6.54s1.02-5.1,3.05-6.53,4.98-2.23,8.84-2.41l4.58-.15v-.39c0-2.26-1.11-3.39-3.34-3.39-2,0-4.55.68-7.63,2.04l-2.74-6.25c3.2-1.65,7.24-2.47,12.11-2.47,3.52,0,6.25.87,8.18,2.62,1.93,1.74,2.9,4.18,2.9,7.32v18h-6.57Z"/><path class="cls-3" d="m225.95,40.13c0,2.94-1,5.16-3,6.66-2,1.5-4.88,2.25-8.62,2.25-2.03,0-3.8-.11-5.31-.33-1.5-.22-3.04-.62-4.6-1.2v-7.58c1.47.65,3.08,1.18,4.83,1.6,1.75.42,3.31.63,4.69.63,2.05,0,3.08-.47,3.08-1.41,0-.48-.29-.92-.86-1.3s-2.24-1.12-5-2.22c-2.52-1.03-4.28-2.21-5.28-3.52-1-1.32-1.5-2.98-1.5-5,0-2.55.98-4.54,2.96-5.96,1.97-1.42,4.76-2.13,8.36-2.13,1.81,0,3.51.2,5.1.59,1.59.4,3.24.97,4.95,1.73l-2.57,6.1c-1.26-.56-2.59-1.05-4-1.44s-2.55-.59-3.44-.59c-1.55,0-2.33.38-2.33,1.14,0,.47.27.87.81,1.2.54.33,2.1,1,4.69,2.02,1.92.79,3.36,1.57,4.3,2.33.94.76,1.64,1.65,2.08,2.68.44,1.03.67,2.27.67,3.74Z"/><path class="cls-3" d="m243.61,41.56c1.52,0,2.59-.48,3.21-1.43.62-.95.96-2.42,1.01-4.41v-.75c0-2.42-.35-4.15-1.04-5.17-.69-1.03-1.79-1.54-3.27-1.54-1.24,0-2.21.59-2.9,1.76-.69,1.17-1.03,2.84-1.03,5s.35,3.76,1.04,4.87c.69,1.11,1.69,1.67,2.98,1.67Zm-3.88,7.49c-1.95,0-3.66-.56-5.12-1.67-1.46-1.11-2.59-2.75-3.39-4.92-.8-2.16-1.2-4.69-1.2-7.58,0-4.46.9-7.95,2.69-10.47,1.79-2.52,4.26-3.78,7.39-3.78,1.53,0,2.88.31,4.03.92,1.15.61,2.21,1.65,3.16,3.1h.19c-.31-2.15-.46-4.3-.46-6.45v-7.34h9.55v37.7h-7.15l-2.04-3.46h-.36c-1.63,2.63-4.06,3.95-7.29,3.95Z"/><path class="cls-3" d="m282.66,48.56l-1.19-3.42h-.56c-.79,1.26-1.89,2.22-3.31,2.9-1.41.67-3.07,1.01-4.98,1.01-3.02,0-5.37-.88-7.05-2.63-1.68-1.75-2.52-4.23-2.52-7.43v-17.88h9.47v15c0,1.79.25,3.15.76,4.07.51.92,1.34,1.38,2.51,1.38,1.63,0,2.79-.64,3.49-1.93.69-1.28,1.04-3.45,1.04-6.51v-12.02h9.47v27.45h-7.15Z"/><path class="cls-3" d="m305.82,48.56h-9.47V10.86h9.47v37.7Z"/><path class="cls-3" d="m331.94,48.56l-1.19-3.42h-.56c-.79,1.26-1.89,2.22-3.31,2.9-1.41.67-3.07,1.01-4.98,1.01-3.02,0-5.37-.88-7.05-2.63s-2.52-4.23-2.52-7.43v-17.88h9.47v15c0,1.79.25,3.15.76,4.07.51.92,1.34,1.38,2.51,1.38,1.63,0,2.79-.64,3.49-1.93.69-1.28,1.04-3.45,1.04-6.51v-12.02h9.47v27.45h-7.15Z"/><path class="cls-3" d="m351.44,34.56l-8.38-13.45h10.76l4.17,7.7,4.26-7.7h10.78l-8.6,13.45,8.94,14h-10.76l-4.63-8.33-4.6,8.33h-10.78l8.84-14Z"/><path class="cls-3" d="m389.58,27.07c-1.11,0-2.05.35-2.8,1.05-.75.7-1.19,1.8-1.32,3.31h8.14c-.03-1.32-.41-2.38-1.13-3.17-.72-.79-1.68-1.19-2.89-1.19Zm.56,21.97c-4.57,0-8.12-1.22-10.65-3.65-2.53-2.43-3.79-5.89-3.79-10.38s1.17-8.19,3.51-10.67c2.34-2.48,5.69-3.72,10.03-3.72s7.33,1.08,9.58,3.24c2.25,2.16,3.38,5.26,3.38,9.31v4.22h-16.94c.06,1.54.63,2.74,1.68,3.61,1.06.87,2.5,1.31,4.32,1.31,1.66,0,3.19-.16,4.59-.47,1.4-.31,2.91-.85,4.54-1.61v6.81c-1.49.76-3.02,1.28-4.6,1.57-1.58.29-3.47.44-5.67.44Z"/><path class="cls-3" d="m16.55,30.22h4l.75-4.07h-4.02l-.73,4.07Zm11.24-4.07l-.73,4.07h5.89v6.15h-7.03l-1.79,9.47h-6.49l1.77-9.47h-4.07l-1.72,9.47h-6.47l1.74-9.47H3.44v-6.15h6.64l.75-4.07h-5.77v-6.3h6.95l1.74-9.42h6.49l-1.79,9.42h4.02l1.74-9.42h6.49l-1.77,9.42h5.55v6.3h-6.71Z"/><path class="cls-3" d="m51.17,46.33c-4.49,0-7.89-1.21-10.21-3.63-2.32-2.42-3.48-5.9-3.48-10.44s1.25-8.08,3.76-10.59c2.5-2.5,6.07-3.76,10.68-3.76,3.18,0,6.18.7,8.99,2.08l-2.79,7c-1.15-.5-2.21-.9-3.17-1.2-.97-.3-1.98-.45-3.03-.45-1.54,0-2.72.6-3.56,1.79-.84,1.2-1.26,2.88-1.26,5.06,0,4.39,1.62,6.59,4.87,6.59,2.78,0,5.44-.81,8-2.42v7.54c-2.44,1.61-5.37,2.42-8.79,2.42Z"/><path class="cls-3" d="m78.11,24.36c-1.11,0-2.05.35-2.8,1.05-.75.7-1.19,1.8-1.32,3.31h8.14c-.03-1.32-.41-2.38-1.13-3.17-.72-.79-1.68-1.19-2.89-1.19Zm.56,21.97c-4.57,0-8.12-1.22-10.65-3.65-2.53-2.43-3.79-5.89-3.79-10.38s1.17-8.19,3.51-10.67c2.34-2.48,5.69-3.72,10.03-3.72s7.33,1.08,9.58,3.24c2.25,2.16,3.38,5.26,3.38,9.31v4.22h-16.94c.06,1.54.63,2.74,1.68,3.61,1.06.87,2.5,1.31,4.32,1.31,1.66,0,3.19-.16,4.59-.47,1.4-.31,2.91-.85,4.54-1.61v6.81c-1.49.76-3.02,1.28-4.6,1.57-1.58.29-3.47.44-5.67.44Z"/><path class="cls-3" d="m117.29,37.42c0,2.94-1,5.16-3,6.66-2,1.5-4.88,2.25-8.62,2.25-2.03,0-3.8-.11-5.31-.33-1.5-.22-3.04-.62-4.6-1.2v-7.58c1.47.65,3.08,1.18,4.83,1.6,1.75.42,3.31.63,4.69.63,2.05,0,3.08-.47,3.08-1.41,0-.48-.29-.92-.86-1.3s-2.25-1.1-5-2.22c-2.53-1.02-4.28-2.21-5.28-3.52-1-1.32-1.5-2.98-1.5-5,0-2.55.98-4.54,2.96-5.96,1.97-1.42,4.76-2.13,8.36-2.13,1.81,0,3.51.2,5.1.59,1.59.4,3.24.97,4.95,1.73l-2.57,6.1c-1.26-.56-2.59-1.05-4-1.44s-2.55-.59-3.44-.59c-1.55,0-2.33.38-2.33,1.14,0,.47.27.87.81,1.2.54.33,2.11.98,4.69,2.02,1.93.78,3.36,1.57,4.3,2.33.94.76,1.64,1.65,2.08,2.68.44,1.03.67,2.27.67,3.74Z"/><path class="cls-3" d="m135.99,38.85c1.28,0,2.8-.31,4.58-.94v6.9c-1.28.55-2.49.94-3.65,1.17s-2.51.35-4.06.35c-3.18,0-5.48-.78-6.88-2.34-1.41-1.56-2.11-3.95-2.11-7.18v-11.31h-3.32v-3.85l4.22-2.98,2.45-5.77h6.2v5.5h6.74v7.1h-6.74v10.68c0,1.78.86,2.66,2.57,2.66Z"/><path class="cls-3" d="m158.67,25.35c-1.39,0-2.36.5-2.92,1.49-.56.99-.86,2.47-.91,4.42v.75c0,2.36.32,4.06.94,5.11.63,1.05,1.62,1.57,2.98,1.57,1.21,0,2.09-.52,2.64-1.56.55-1.04.82-2.77.82-5.17s-.27-4.05-.82-5.08-1.46-1.54-2.74-1.54Zm3.17,20.98c-1.39,0-2.63-.23-3.73-.69-1.1-.46-2.19-1.29-3.27-2.48h-.44c.29,1.92.44,3.12.44,3.59v11.02h-9.47V18.4h7.7l1.33,3.49h.44c1.76-2.65,4.19-3.97,7.29-3.97s5.42,1.26,7.15,3.78c1.73,2.52,2.59,5.98,2.59,10.37s-.9,7.91-2.7,10.45c-1.8,2.54-4.24,3.82-7.33,3.82Z"/><path class="cls-3" d="m188.15,39.65c1.15,0,2.13-.36,2.94-1.09.82-.73,1.22-1.67,1.22-2.84v-2.13l-2.18.1c-3.12.11-4.68,1.26-4.68,3.44,0,1.68.9,2.52,2.69,2.52Zm7.03,6.2l-1.82-3.63h-.19c-1.28,1.58-2.58,2.66-3.9,3.25-1.32.58-3.04.87-5.14.87-2.58,0-4.62-.78-6.11-2.33-1.49-1.55-2.23-3.73-2.23-6.54s1.02-5.1,3.05-6.53,4.98-2.23,8.84-2.41l4.58-.15v-.39c0-2.26-1.11-3.39-3.34-3.39-2,0-4.55.68-7.63,2.04l-2.74-6.25c3.2-1.65,7.24-2.47,12.11-2.47,3.52,0,6.25.87,8.18,2.62,1.93,1.74,2.9,4.18,2.9,7.32v18h-6.57Z"/><path class="cls-3" d="m229.39,37.42c0,2.94-1,5.16-3,6.66-2,1.5-4.88,2.25-8.62,2.25-2.03,0-3.8-.11-5.31-.33-1.5-.22-3.04-.62-4.6-1.2v-7.58c1.47.65,3.08,1.18,4.83,1.6,1.75.42,3.31.63,4.69.63,2.05,0,3.08-.47,3.08-1.41,0-.48-.29-.92-.86-1.3s-2.25-1.1-5-2.22c-2.53-1.02-4.28-2.21-5.28-3.52-1-1.32-1.5-2.98-1.5-5,0-2.55.98-4.54,2.96-5.96,1.97-1.42,4.76-2.13,8.36-2.13,1.81,0,3.51.2,5.1.59,1.59.4,3.24.97,4.95,1.73l-2.57,6.1c-1.26-.56-2.59-1.05-4-1.44s-2.55-.59-3.44-.59c-1.55,0-2.33.38-2.33,1.14,0,.47.27.87.81,1.2.54.33,2.11.98,4.69,2.02,1.93.78,3.36,1.57,4.3,2.33.94.76,1.64,1.65,2.08,2.68.44,1.03.67,2.27.67,3.74Z"/><path class="cls-3" d="m247.05,38.85c1.52,0,2.59-.48,3.21-1.43.62-.95.96-2.42,1.01-4.41v-.75c0-2.42-.35-4.15-1.04-5.17-.69-1.03-1.79-1.54-3.27-1.54-1.24,0-2.21.59-2.9,1.76s-1.03,2.84-1.03,5,.35,3.76,1.04,4.87c.69,1.11,1.69,1.67,2.98,1.67Zm-3.88,7.49c-1.95,0-3.66-.56-5.12-1.67-1.46-1.11-2.59-2.75-3.39-4.92-.8-2.16-1.2-4.69-1.2-7.58,0-4.46.9-7.95,2.69-10.47,1.79-2.52,4.26-3.78,7.39-3.78,1.53,0,2.88.31,4.03.92,1.15.61,2.21,1.65,3.16,3.1h.19c-.31-2.15-.46-4.3-.46-6.45v-7.34h9.55v37.7h-7.15l-2.04-3.46h-.36c-1.63,2.63-4.06,3.95-7.29,3.95Z"/><path class="cls-3" d="m286.1,45.85l-1.19-3.42h-.56c-.79,1.26-1.89,2.22-3.31,2.9-1.41.67-3.07,1.01-4.98,1.01-3.02,0-5.37-.88-7.05-2.63-1.68-1.75-2.52-4.23-2.52-7.43v-17.88h9.47v15c0,1.79.25,3.15.76,4.07.51.92,1.34,1.38,2.51,1.38,1.63,0,2.79-.64,3.49-1.93.69-1.28,1.04-3.45,1.04-6.51v-12.02h9.47v27.45h-7.15Z"/><rect class="cls-3" x="299.79" y="8.15" width="9.47" height="37.7"/><path class="cls-3" d="m335.38,45.85l-1.19-3.42h-.56c-.79,1.26-1.89,2.22-3.31,2.9-1.41.67-3.07,1.01-4.98,1.01-3.02,0-5.37-.88-7.05-2.63s-2.52-4.23-2.52-7.43v-17.88h9.47v15c0,1.79.25,3.15.76,4.07.51.92,1.34,1.38,2.51,1.38,1.63,0,2.79-.64,3.49-1.93.69-1.28,1.04-3.45,1.04-6.51v-12.02h9.47v27.45h-7.15Z"/><polygon class="cls-3" points="354.88 31.84 346.5 18.4 357.26 18.4 361.43 26.1 365.69 18.4 376.47 18.4 367.87 31.84 376.81 45.85 366.05 45.85 361.43 37.51 356.82 45.85 346.04 45.85 354.88 31.84"/><path class="cls-3" d="m393.02,24.36c-1.11,0-2.05.35-2.8,1.05-.75.7-1.19,1.8-1.32,3.31h8.14c-.03-1.32-.41-2.38-1.13-3.17-.72-.79-1.68-1.19-2.89-1.19Zm.56,21.97c-4.57,0-8.12-1.22-10.65-3.65-2.53-2.43-3.79-5.89-3.79-10.38s1.17-8.19,3.51-10.67c2.34-2.48,5.69-3.72,10.03-3.72s7.33,1.08,9.58,3.24c2.25,2.16,3.38,5.26,3.38,9.31v4.22h-16.94c.06,1.54.63,2.74,1.68,3.61,1.06.87,2.5,1.31,4.32,1.31,1.66,0,3.19-.16,4.59-.47,1.4-.31,2.91-.85,4.54-1.61v6.81c-1.49.76-3.02,1.28-4.6,1.57-1.58.29-3.47.44-5.67.44Z"/><path class="cls-3" d="m19.99,27.5h4l.75-4.07h-4.02l-.73,4.07Zm11.24-4.07l-.73,4.07h5.89v6.15h-7.03l-1.79,9.47h-6.49l1.77-9.47h-4.07l-1.72,9.47h-6.47l1.74-9.47h-5.45v-6.15h6.64l.75-4.07h-5.77v-6.3h6.95l1.74-9.42h6.49l-1.79,9.42h4.02l1.74-9.42h6.49l-1.77,9.42h5.55v6.3h-6.71Z"/><path class="cls-3" d="m54.61,43.62c-4.49,0-7.89-1.21-10.21-3.63-2.32-2.42-3.48-5.9-3.48-10.44s1.25-8.08,3.76-10.59c2.5-2.5,6.07-3.76,10.68-3.76,3.18,0,6.18.7,8.99,2.08l-2.79,7c-1.15-.5-2.21-.9-3.17-1.2-.97-.3-1.98-.45-3.03-.45-1.54,0-2.72.6-3.56,1.79-.84,1.2-1.26,2.88-1.26,5.06,0,4.39,1.62,6.59,4.87,6.59,2.78,0,5.44-.81,8-2.42v7.54c-2.44,1.61-5.37,2.42-8.79,2.42Z"/><path class="cls-3" d="m81.55,21.64c-1.11,0-2.05.35-2.8,1.05-.75.7-1.19,1.8-1.32,3.31h8.14c-.03-1.32-.41-2.38-1.13-3.17-.72-.79-1.68-1.19-2.89-1.19Zm.56,21.97c-4.57,0-8.12-1.22-10.65-3.65-2.53-2.43-3.79-5.89-3.79-10.38s1.17-8.19,3.51-10.67c2.34-2.48,5.69-3.72,10.03-3.72s7.33,1.08,9.58,3.24c2.25,2.16,3.38,5.26,3.38,9.31v4.22h-16.94c.06,1.54.63,2.74,1.68,3.61,1.06.87,2.5,1.31,4.32,1.31,1.66,0,3.19-.16,4.59-.47,1.4-.31,2.91-.85,4.54-1.61v6.81c-1.49.76-3.02,1.28-4.6,1.57-1.58.29-3.47.44-5.67.44Z"/><path class="cls-3" d="m120.73,34.7c0,2.94-1,5.16-3,6.66-2,1.5-4.88,2.25-8.62,2.25-2.03,0-3.8-.11-5.31-.33-1.5-.22-3.04-.62-4.6-1.2v-7.58c1.47.65,3.08,1.18,4.83,1.6,1.75.42,3.31.63,4.69.63,2.05,0,3.08-.47,3.08-1.41,0-.48-.29-.92-.86-1.3s-2.25-1.1-5-2.22c-2.53-1.02-4.28-2.21-5.28-3.52-1-1.32-1.5-2.98-1.5-5,0-2.55.98-4.54,2.96-5.96,1.97-1.42,4.76-2.13,8.36-2.13,1.81,0,3.51.2,5.1.59,1.59.4,3.24.97,4.95,1.73l-2.57,6.1c-1.26-.56-2.59-1.05-4-1.44s-2.55-.59-3.44-.59c-1.55,0-2.33.38-2.33,1.14,0,.47.27.87.81,1.2.54.33,2.11.98,4.69,2.02,1.93.78,3.36,1.57,4.3,2.33.94.76,1.64,1.65,2.08,2.68.44,1.03.67,2.27.67,3.74Z"/><path class="cls-3" d="m139.43,36.13c1.28,0,2.8-.31,4.58-.94v6.9c-1.28.55-2.49.94-3.65,1.17s-2.51.35-4.06.35c-3.18,0-5.48-.78-6.88-2.34-1.41-1.56-2.11-3.95-2.11-7.18v-11.31h-3.32v-3.85l4.22-2.98,2.45-5.77h6.2v5.5h6.74v7.1h-6.74v10.68c0,1.78.86,2.66,2.57,2.66Z"/><path class="cls-3" d="m162.11,22.63c-1.39,0-2.36.5-2.92,1.49-.56.99-.86,2.47-.91,4.42v.75c0,2.36.32,4.06.94,5.11.63,1.05,1.62,1.57,2.98,1.57,1.21,0,2.09-.52,2.64-1.56.55-1.04.82-2.77.82-5.17s-.27-4.05-.82-5.08c-.55-1.03-1.46-1.54-2.74-1.54Zm3.17,20.98c-1.39,0-2.63-.23-3.73-.69-1.1-.46-2.19-1.29-3.27-2.48h-.44c.29,1.92.44,3.12.44,3.59v11.02h-9.47V15.68h7.7l1.33,3.49h.44c1.76-2.65,4.19-3.97,7.29-3.97s5.42,1.26,7.15,3.78c1.73,2.52,2.59,5.98,2.59,10.37s-.9,7.91-2.7,10.45c-1.8,2.54-4.24,3.82-7.33,3.82Z"/><path class="cls-3" d="m191.59,36.93c1.15,0,2.13-.36,2.94-1.09.82-.73,1.22-1.67,1.22-2.84v-2.13l-2.18.1c-3.12.11-4.68,1.26-4.68,3.44,0,1.68.9,2.52,2.69,2.52Zm7.03,6.2l-1.82-3.63h-.19c-1.28,1.58-2.58,2.66-3.9,3.25-1.32.58-3.04.87-5.14.87-2.58,0-4.62-.78-6.11-2.33-1.49-1.55-2.23-3.73-2.23-6.54s1.02-5.1,3.05-6.53,4.98-2.23,8.84-2.41l4.58-.15v-.39c0-2.26-1.11-3.39-3.34-3.39-2,0-4.55.68-7.63,2.04l-2.74-6.25c3.2-1.65,7.24-2.47,12.11-2.47,3.52,0,6.25.87,8.18,2.62,1.93,1.74,2.9,4.18,2.9,7.32v18h-6.57Z"/><path class="cls-3" d="m232.83,34.7c0,2.94-1,5.16-3,6.66-2,1.5-4.88,2.25-8.62,2.25-2.03,0-3.8-.11-5.31-.33-1.5-.22-3.04-.62-4.6-1.2v-7.58c1.47.65,3.08,1.18,4.83,1.6,1.75.42,3.31.63,4.69.63,2.05,0,3.08-.47,3.08-1.41,0-.48-.29-.92-.86-1.3s-2.25-1.1-5-2.22c-2.53-1.02-4.28-2.21-5.28-3.52-1-1.32-1.5-2.98-1.5-5,0-2.55.98-4.54,2.96-5.96,1.97-1.42,4.76-2.13,8.36-2.13,1.81,0,3.51.2,5.1.59,1.59.4,3.24.97,4.95,1.73l-2.57,6.1c-1.26-.56-2.59-1.05-4-1.44s-2.55-.59-3.44-.59c-1.55,0-2.33.38-2.33,1.14,0,.47.27.87.81,1.2.54.33,2.11.98,4.69,2.02,1.93.78,3.36,1.57,4.3,2.33.94.76,1.64,1.65,2.08,2.68.44,1.03.67,2.27.67,3.74Z"/><path class="cls-3" d="m250.49,36.13c1.52,0,2.59-.48,3.21-1.43.62-.95.96-2.42,1.01-4.41v-.75c0-2.42-.35-4.15-1.04-5.17-.69-1.03-1.79-1.54-3.27-1.54-1.24,0-2.21.59-2.9,1.76s-1.03,2.84-1.03,5,.35,3.76,1.04,4.87c.69,1.11,1.69,1.67,2.98,1.67Zm-3.88,7.49c-1.95,0-3.66-.56-5.12-1.67-1.46-1.11-2.59-2.75-3.39-4.92-.8-2.16-1.2-4.69-1.2-7.58,0-4.46.9-7.95,2.69-10.47,1.79-2.52,4.26-3.78,7.39-3.78,1.53,0,2.88.31,4.03.92,1.15.61,2.21,1.65,3.16,3.1h.19c-.31-2.15-.46-4.3-.46-6.45v-7.34h9.55v37.7h-7.15l-2.04-3.46h-.36c-1.63,2.63-4.06,3.95-7.29,3.95Z"/><path class="cls-3" d="m289.54,43.13l-1.19-3.42h-.56c-.79,1.26-1.89,2.22-3.31,2.9-1.41.67-3.07,1.01-4.98,1.01-3.02,0-5.37-.88-7.05-2.63s-2.52-4.23-2.52-7.43V15.68h9.47v15c0,1.79.25,3.15.76,4.07.51.92,1.34,1.38,2.51,1.38,1.63,0,2.79-.64,3.49-1.93.69-1.28,1.04-3.45,1.04-6.51v-12.02h9.47v27.45h-7.15Z"/><rect class="cls-3" x="303.23" y="5.43" width="9.47" height="37.7"/><path class="cls-3" d="m338.82,43.13l-1.19-3.42h-.56c-.79,1.26-1.89,2.22-3.31,2.9-1.41.67-3.07,1.01-4.98,1.01-3.02,0-5.37-.88-7.05-2.63s-2.52-4.23-2.52-7.43V15.68h9.47v15c0,1.79.25,3.15.76,4.07.51.92,1.34,1.38,2.51,1.38,1.63,0,2.79-.64,3.49-1.93.69-1.28,1.04-3.45,1.04-6.51v-12.02h9.47v27.45h-7.15Z"/><polygon class="cls-3" points="358.32 29.13 349.94 15.68 360.7 15.68 364.87 23.39 369.13 15.68 379.91 15.68 371.31 29.13 380.25 43.13 369.49 43.13 364.87 34.8 360.26 43.13 349.48 43.13 358.32 29.13"/><path class="cls-3" d="m396.46,21.64c-1.11,0-2.05.35-2.8,1.05-.75.7-1.19,1.8-1.32,3.31h8.14c-.03-1.32-.41-2.38-1.13-3.17-.72-.79-1.68-1.19-2.89-1.19Zm.56,21.97c-4.57,0-8.12-1.22-10.65-3.65-2.53-2.43-3.79-5.89-3.79-10.38s1.17-8.19,3.51-10.67c2.34-2.48,5.69-3.72,10.03-3.72s7.33,1.08,9.58,3.24c2.25,2.16,3.38,5.26,3.38,9.31v4.22h-16.94c.06,1.54.63,2.74,1.68,3.61,1.06.87,2.5,1.31,4.32,1.31,1.66,0,3.19-.16,4.59-.47,1.4-.31,2.91-.85,4.54-1.61v6.81c-1.49.76-3.02,1.28-4.6,1.57-1.58.29-3.47.44-5.67.44Z"/><path class="cls-3" d="m23.43,24.79h4l.75-4.07h-4.02l-.73,4.07Zm11.24-4.07l-.73,4.07h5.89v6.15h-7.03l-1.79,9.47h-6.49l1.77-9.47h-4.07l-1.72,9.47h-6.47l1.74-9.47h-5.45v-6.15h6.64l.75-4.07h-5.77v-6.3h6.95l1.74-9.42h6.49l-1.79,9.42h4.02l1.74-9.42h6.49l-1.77,9.42h5.55v6.3h-6.71Z"/><path class="cls-3" d="m58.05,40.9c-4.49,0-7.89-1.21-10.21-3.63-2.32-2.42-3.48-5.9-3.48-10.44s1.25-8.08,3.76-10.59c2.5-2.5,6.07-3.76,10.68-3.76,3.18,0,6.18.7,8.99,2.08l-2.79,7c-1.15-.5-2.21-.9-3.17-1.2-.97-.3-1.98-.45-3.03-.45-1.54,0-2.72.6-3.56,1.79-.84,1.2-1.26,2.88-1.26,5.06,0,4.39,1.62,6.59,4.87,6.59,2.78,0,5.44-.81,8-2.42v7.54c-2.44,1.61-5.37,2.42-8.79,2.42Z"/><path class="cls-3" d="m84.99,18.93c-1.11,0-2.05.35-2.8,1.05-.75.7-1.19,1.8-1.32,3.31h8.14c-.03-1.32-.41-2.38-1.13-3.17-.72-.79-1.68-1.19-2.89-1.19Zm.56,21.97c-4.57,0-8.12-1.22-10.65-3.65-2.53-2.43-3.79-5.89-3.79-10.38s1.17-8.19,3.51-10.67c2.34-2.48,5.69-3.72,10.03-3.72s7.33,1.08,9.58,3.24c2.25,2.16,3.38,5.26,3.38,9.31v4.22h-16.94c.06,1.54.63,2.74,1.68,3.61,1.06.87,2.5,1.31,4.32,1.31,1.66,0,3.19-.16,4.59-.47,1.4-.31,2.91-.85,4.54-1.61v6.81c-1.49.76-3.02,1.28-4.6,1.57-1.58.29-3.47.44-5.67.44Z"/><path class="cls-3" d="m124.17,31.98c0,2.94-1,5.16-3,6.66-2,1.5-4.88,2.25-8.62,2.25-2.03,0-3.8-.11-5.31-.33-1.5-.22-3.04-.62-4.6-1.2v-7.58c1.47.65,3.08,1.18,4.83,1.6,1.75.42,3.31.63,4.69.63,2.05,0,3.08-.47,3.08-1.41,0-.48-.29-.92-.86-1.3s-2.25-1.1-5-2.22c-2.53-1.02-4.28-2.21-5.28-3.52-1-1.32-1.5-2.98-1.5-5,0-2.55.98-4.54,2.96-5.96,1.97-1.42,4.76-2.13,8.36-2.13,1.81,0,3.51.2,5.1.59,1.59.4,3.24.97,4.95,1.73l-2.57,6.1c-1.26-.56-2.59-1.05-4-1.44s-2.55-.59-3.44-.59c-1.55,0-2.33.38-2.33,1.14,0,.47.27.87.81,1.2.54.33,2.11.98,4.69,2.02,1.93.78,3.36,1.57,4.3,2.33.94.76,1.64,1.65,2.08,2.68.44,1.03.67,2.27.67,3.74Z"/><path class="cls-3" d="m142.87,33.41c1.28,0,2.8-.31,4.58-.94v6.9c-1.28.55-2.49.94-3.65,1.17s-2.51.35-4.06.35c-3.18,0-5.48-.78-6.88-2.34-1.41-1.56-2.11-3.95-2.11-7.18v-11.31h-3.32v-3.85l4.22-2.98,2.45-5.77h6.2v5.5h6.74v7.1h-6.74v10.68c0,1.78.86,2.66,2.57,2.66Z"/><path class="cls-3" d="m165.55,19.92c-1.39,0-2.36.5-2.92,1.49-.56.99-.86,2.47-.91,4.42v.75c0,2.36.32,4.06.94,5.11.63,1.05,1.62,1.57,2.98,1.57,1.21,0,2.09-.52,2.64-1.56.55-1.04.82-2.77.82-5.17s-.27-4.05-.82-5.08c-.55-1.03-1.46-1.54-2.74-1.54Zm3.17,20.98c-1.39,0-2.63-.23-3.73-.69-1.1-.46-2.19-1.29-3.27-2.48h-.44c.29,1.92.44,3.12.44,3.59v11.02h-9.47V12.97h7.7l1.33,3.49h.44c1.76-2.65,4.19-3.97,7.29-3.97s5.42,1.26,7.15,3.78c1.73,2.52,2.59,5.98,2.59,10.37s-.9,7.91-2.7,10.45c-1.8,2.54-4.24,3.82-7.33,3.82Z"/><path class="cls-3" d="m195.03,34.21c1.15,0,2.13-.36,2.94-1.09.82-.73,1.22-1.67,1.22-2.84v-2.13l-2.18.1c-3.12.11-4.68,1.26-4.68,3.44,0,1.68.9,2.52,2.69,2.52Zm7.03,6.2l-1.82-3.63h-.19c-1.28,1.58-2.58,2.66-3.9,3.25-1.32.58-3.04.87-5.14.87-2.58,0-4.62-.78-6.11-2.33-1.49-1.55-2.23-3.73-2.23-6.54s1.02-5.1,3.05-6.53,4.98-2.23,8.84-2.41l4.58-.15v-.39c0-2.26-1.11-3.39-3.34-3.39-2,0-4.55.68-7.63,2.04l-2.74-6.25c3.2-1.65,7.24-2.47,12.11-2.47,3.52,0,6.25.87,8.18,2.62,1.93,1.74,2.9,4.18,2.9,7.32v18h-6.57Z"/><path class="cls-3" d="m236.27,31.98c0,2.94-1,5.16-3,6.66-2,1.5-4.88,2.25-8.62,2.25-2.03,0-3.8-.11-5.31-.33-1.5-.22-3.04-.62-4.6-1.2v-7.58c1.47.65,3.08,1.18,4.83,1.6,1.75.42,3.31.63,4.69.63,2.05,0,3.08-.47,3.08-1.41,0-.48-.29-.92-.86-1.3s-2.25-1.1-5-2.22c-2.53-1.02-4.28-2.21-5.28-3.52-1-1.32-1.5-2.98-1.5-5,0-2.55.98-4.54,2.96-5.96,1.97-1.42,4.76-2.13,8.36-2.13,1.81,0,3.51.2,5.1.59,1.59.4,3.24.97,4.95,1.73l-2.57,6.1c-1.26-.56-2.59-1.05-4-1.44s-2.55-.59-3.44-.59c-1.55,0-2.33.38-2.33,1.14,0,.47.27.87.81,1.2.54.33,2.11.98,4.69,2.02,1.93.78,3.36,1.57,4.3,2.33.94.76,1.64,1.65,2.08,2.68.44,1.03.67,2.27.67,3.74Z"/><path class="cls-3" d="m253.93,33.41c1.52,0,2.59-.48,3.21-1.43.62-.95.96-2.42,1.01-4.41v-.75c0-2.42-.35-4.15-1.04-5.17-.69-1.03-1.79-1.54-3.27-1.54-1.24,0-2.21.59-2.9,1.76s-1.03,2.84-1.03,5,.35,3.76,1.04,4.87c.69,1.11,1.69,1.67,2.98,1.67Zm-3.88,7.49c-1.95,0-3.66-.56-5.12-1.67-1.46-1.11-2.59-2.75-3.39-4.92-.8-2.16-1.2-4.69-1.2-7.58,0-4.46.9-7.95,2.69-10.47,1.79-2.52,4.26-3.78,7.39-3.78,1.53,0,2.88.31,4.03.92,1.15.61,2.21,1.65,3.16,3.1h.19c-.31-2.15-.46-4.3-.46-6.45V2.72h9.55v37.7h-7.15l-2.04-3.46h-.36c-1.63,2.63-4.06,3.95-7.29,3.95Z"/><path class="cls-3" d="m292.98,40.41l-1.19-3.42h-.56c-.79,1.26-1.89,2.22-3.31,2.9-1.41.67-3.07,1.01-4.98,1.01-3.02,0-5.37-.88-7.05-2.63-1.68-1.75-2.52-4.23-2.52-7.43V12.97h9.47v15c0,1.79.25,3.15.76,4.07.51.92,1.34,1.38,2.51,1.38,1.63,0,2.79-.64,3.49-1.93.69-1.28,1.04-3.45,1.04-6.51v-12.02h9.47v27.45h-7.15Z"/><rect class="cls-3" x="306.67" y="2.72" width="9.47" height="37.7"/><path class="cls-3" d="m342.26,40.41l-1.19-3.42h-.56c-.79,1.26-1.89,2.22-3.31,2.9s-3.07,1.01-4.98,1.01c-3.02,0-5.37-.88-7.05-2.63s-2.52-4.23-2.52-7.43V12.97h9.47v15c0,1.79.25,3.15.76,4.07.51.92,1.34,1.38,2.51,1.38,1.63,0,2.79-.64,3.49-1.93.69-1.28,1.04-3.45,1.04-6.51v-12.02h9.47v27.45h-7.15Z"/><polygon class="cls-3" points="361.77 26.41 353.38 12.97 364.14 12.97 368.31 20.67 372.57 12.97 383.35 12.97 374.75 26.41 383.69 40.41 372.93 40.41 368.31 32.08 363.7 40.41 352.92 40.41 361.77 26.41"/><path class="cls-3" d="m399.9,18.93c-1.11,0-2.05.35-2.8,1.05-.75.7-1.19,1.8-1.32,3.31h8.14c-.03-1.32-.41-2.38-1.13-3.17-.72-.79-1.68-1.19-2.89-1.19Zm.56,21.97c-4.57,0-8.12-1.22-10.65-3.65-2.53-2.43-3.79-5.89-3.79-10.38s1.17-8.19,3.51-10.67c2.34-2.48,5.69-3.72,10.03-3.72s7.33,1.08,9.58,3.24c2.25,2.16,3.38,5.26,3.38,9.31v4.22h-16.94c.06,1.54.63,2.74,1.68,3.61,1.06.87,2.5,1.31,4.32,1.31,1.66,0,3.19-.16,4.59-.47,1.4-.31,2.91-.85,4.54-1.61v6.81c-1.49.76-3.02,1.28-4.6,1.57-1.58.29-3.47.44-5.67.44Z"/><path class="cls-3" d="m26.87,22.07h4l.75-4.07h-4.02l-.73,4.07Zm11.24-4.07l-.73,4.07h5.89v6.15h-7.03l-1.79,9.47h-6.49l1.77-9.47h-4.07l-1.72,9.47h-6.47l1.74-9.47h-5.45v-6.15h6.64l.75-4.07h-5.77v-6.3h6.95l1.74-9.42h6.49l-1.79,9.42h4.02l1.74-9.42h6.49l-1.77,9.42h5.55v6.3h-6.71Z"/><path class="cls-3" d="m61.49,38.18c-4.49,0-7.89-1.21-10.21-3.63-2.32-2.42-3.48-5.9-3.48-10.44s1.25-8.08,3.76-10.59c2.5-2.5,6.07-3.76,10.68-3.76,3.18,0,6.18.7,8.99,2.08l-2.79,7c-1.15-.5-2.21-.9-3.17-1.2-.97-.3-1.98-.45-3.03-.45-1.54,0-2.72.6-3.56,1.79-.84,1.2-1.26,2.88-1.26,5.06,0,4.39,1.62,6.59,4.87,6.59,2.78,0,5.44-.81,8-2.42v7.54c-2.44,1.61-5.37,2.42-8.79,2.42Z"/><path class="cls-3" d="m88.43,16.21c-1.11,0-2.05.35-2.8,1.05-.75.7-1.19,1.8-1.32,3.31h8.14c-.03-1.32-.41-2.38-1.13-3.17-.72-.79-1.68-1.19-2.89-1.19Zm.56,21.97c-4.57,0-8.12-1.22-10.65-3.65-2.53-2.43-3.79-5.89-3.79-10.38s1.17-8.19,3.51-10.67c2.34-2.48,5.69-3.72,10.03-3.72s7.33,1.08,9.58,3.24c2.25,2.16,3.38,5.26,3.38,9.31v4.22h-16.94c.06,1.54.63,2.74,1.68,3.61,1.06.87,2.5,1.31,4.32,1.31,1.66,0,3.19-.16,4.59-.47,1.4-.31,2.91-.85,4.54-1.61v6.81c-1.49.76-3.02,1.28-4.6,1.57-1.58.29-3.47.44-5.67.44Z"/><path class="cls-3" d="m127.61,29.27c0,2.94-1,5.16-3,6.66-2,1.5-4.88,2.25-8.62,2.25-2.03,0-3.8-.11-5.31-.33-1.5-.22-3.04-.62-4.6-1.2v-7.58c1.47.65,3.08,1.18,4.83,1.6,1.75.42,3.31.63,4.69.63,2.05,0,3.08-.47,3.08-1.41,0-.48-.29-.92-.86-1.3s-2.24-1.12-5-2.22c-2.52-1.03-4.28-2.21-5.28-3.52-1-1.32-1.5-2.98-1.5-5,0-2.55.98-4.54,2.96-5.96,1.97-1.42,4.76-2.13,8.36-2.13,1.81,0,3.51.2,5.1.59,1.59.4,3.24.97,4.95,1.73l-2.57,6.1c-1.26-.56-2.59-1.05-4-1.44s-2.55-.59-3.44-.59c-1.55,0-2.33.38-2.33,1.14,0,.47.27.87.81,1.2.54.33,2.1,1,4.69,2.02,1.92.79,3.36,1.57,4.3,2.33.94.76,1.64,1.65,2.08,2.68.44,1.03.67,2.27.67,3.74Z"/><path class="cls-3" d="m146.31,30.7c1.28,0,2.8-.31,4.58-.94v6.9c-1.28.55-2.49.94-3.65,1.17s-2.51.35-4.06.35c-3.18,0-5.48-.78-6.88-2.34-1.41-1.56-2.11-3.95-2.11-7.18v-11.31h-3.32v-3.85l4.22-2.98,2.45-5.77h6.2v5.5h6.74v7.1h-6.74v10.68c0,1.78.86,2.66,2.57,2.66Z"/><path class="cls-3" d="m168.99,17.2c-1.39,0-2.36.5-2.92,1.49-.56.99-.86,2.47-.91,4.42v.75c0,2.36.32,4.06.94,5.11.63,1.05,1.62,1.57,2.98,1.57,1.21,0,2.09-.52,2.64-1.56.55-1.04.82-2.77.82-5.17s-.27-4.05-.82-5.08c-.55-1.03-1.46-1.54-2.74-1.54Zm3.17,20.98c-1.39,0-2.63-.23-3.73-.69-1.1-.46-2.19-1.29-3.27-2.48h-.44c.29,1.92.44,3.12.44,3.59v11.02h-9.47V10.25h7.7l1.33,3.49h.44c1.76-2.65,4.19-3.97,7.29-3.97s5.42,1.26,7.15,3.78c1.73,2.52,2.59,5.98,2.59,10.37s-.9,7.91-2.7,10.45-4.24,3.82-7.33,3.82Z"/><path class="cls-3" d="m198.47,31.5c1.15,0,2.13-.36,2.94-1.09.82-.73,1.22-1.67,1.22-2.84v-2.13l-2.18.1c-3.12.11-4.68,1.26-4.68,3.44,0,1.68.9,2.52,2.69,2.52Zm7.03,6.2l-1.82-3.63h-.19c-1.28,1.58-2.58,2.66-3.9,3.25s-3.04.87-5.14.87c-2.58,0-4.62-.78-6.11-2.33-1.49-1.55-2.23-3.73-2.23-6.54s1.02-5.1,3.05-6.53,4.98-2.23,8.84-2.41l4.58-.15v-.39c0-2.26-1.11-3.39-3.34-3.39-2,0-4.55.68-7.63,2.04l-2.74-6.25c3.2-1.65,7.24-2.47,12.11-2.47,3.52,0,6.25.87,8.18,2.62,1.93,1.74,2.9,4.18,2.9,7.32v18h-6.57Z"/><path class="cls-3" d="m239.71,29.27c0,2.94-1,5.16-3,6.66-2,1.5-4.88,2.25-8.62,2.25-2.03,0-3.8-.11-5.31-.33-1.5-.22-3.04-.62-4.6-1.2v-7.58c1.47.65,3.08,1.18,4.83,1.6,1.75.42,3.31.63,4.69.63,2.05,0,3.08-.47,3.08-1.41,0-.48-.29-.92-.86-1.3s-2.24-1.12-5-2.22c-2.52-1.03-4.28-2.21-5.28-3.52-1-1.32-1.5-2.98-1.5-5,0-2.55.98-4.54,2.96-5.96,1.97-1.42,4.76-2.13,8.36-2.13,1.81,0,3.51.2,5.1.59,1.59.4,3.24.97,4.95,1.73l-2.57,6.1c-1.26-.56-2.59-1.05-4-1.44s-2.55-.59-3.44-.59c-1.55,0-2.33.38-2.33,1.14,0,.47.27.87.81,1.2.54.33,2.1,1,4.69,2.02,1.92.79,3.36,1.57,4.3,2.33.94.76,1.64,1.65,2.08,2.68.44,1.03.67,2.27.67,3.74Z"/><path class="cls-3" d="m257.37,30.7c1.52,0,2.59-.48,3.21-1.43.62-.95.96-2.42,1.01-4.41v-.75c0-2.42-.35-4.15-1.04-5.17-.69-1.03-1.79-1.54-3.27-1.54-1.24,0-2.21.59-2.9,1.76s-1.03,2.84-1.03,5,.35,3.76,1.04,4.87c.69,1.11,1.69,1.67,2.98,1.67Zm-3.88,7.49c-1.95,0-3.66-.56-5.12-1.67-1.46-1.11-2.59-2.75-3.39-4.92-.8-2.16-1.2-4.69-1.2-7.58,0-4.46.9-7.95,2.69-10.47,1.79-2.52,4.26-3.78,7.39-3.78,1.53,0,2.88.31,4.03.92,1.15.61,2.21,1.65,3.16,3.1h.19c-.31-2.15-.46-4.3-.46-6.45V0h9.55v37.7h-7.15l-2.04-3.46h-.36c-1.63,2.63-4.06,3.95-7.29,3.95Z"/><path class="cls-3" d="m296.42,37.7l-1.19-3.42h-.56c-.79,1.26-1.89,2.22-3.31,2.9-1.41.67-3.07,1.01-4.98,1.01-3.02,0-5.37-.88-7.05-2.63-1.68-1.75-2.52-4.23-2.52-7.43V10.25h9.47v15c0,1.79.25,3.15.76,4.07.51.92,1.34,1.38,2.51,1.38,1.63,0,2.79-.64,3.49-1.93.69-1.28,1.04-3.45,1.04-6.51v-12.02h9.47v27.45h-7.15Z"/><path class="cls-3" d="m319.59,37.7h-9.47V0h9.47v37.7Z"/><path class="cls-3" d="m345.7,37.7l-1.19-3.42h-.56c-.79,1.26-1.89,2.22-3.31,2.9s-3.07,1.01-4.98,1.01c-3.02,0-5.37-.88-7.05-2.63-1.68-1.75-2.52-4.23-2.52-7.43V10.25h9.47v15c0,1.79.25,3.15.76,4.07.51.92,1.34,1.38,2.51,1.38,1.63,0,2.79-.64,3.49-1.93.69-1.28,1.04-3.45,1.04-6.51v-12.02h9.47v27.45h-7.15Z"/><path class="cls-3" d="m365.21,23.7l-8.38-13.45h10.76l4.17,7.7,4.26-7.7h10.78l-8.6,13.45,8.94,14h-10.76l-4.63-8.33-4.6,8.33h-10.78l8.84-14Z"/><path class="cls-3" d="m403.34,16.21c-1.11,0-2.05.35-2.8,1.05-.75.7-1.19,1.8-1.32,3.31h8.14c-.03-1.32-.41-2.38-1.13-3.17-.72-.79-1.68-1.19-2.89-1.19Zm.56,21.97c-4.57,0-8.12-1.22-10.65-3.65-2.53-2.43-3.79-5.89-3.79-10.38s1.17-8.19,3.51-10.67c2.34-2.48,5.69-3.72,10.03-3.72s7.33,1.08,9.58,3.24c2.25,2.16,3.38,5.26,3.38,9.31v4.22h-16.94c.06,1.54.63,2.74,1.68,3.61,1.06.87,2.5,1.31,4.32,1.31,1.66,0,3.19-.16,4.59-.47,1.4-.31,2.91-.85,4.54-1.61v6.81c-1.49.76-3.02,1.28-4.6,1.57-1.58.29-3.47.44-5.67.44Z"/><path class="cls-2" d="m38.1,17.85l-.73,4.07h5.89v6.15h-7.03l-1.79,9.47h-6.49l1.77-9.47h-4.07l-1.72,9.47h-6.47l1.74-9.47h-5.45v-6.15h6.64l.75-4.07h-5.77v-6.3h6.95l1.74-9.42h6.49l-1.79,9.42h4.02l1.74-9.42h6.49l-1.77,9.42h5.55v6.3h-6.71Zm-11.24,4.07h4l.75-4.07h-4.02l-.73,4.07Z"/><path class="cls-2" d="m61.47,38.03c-4.49,0-7.89-1.21-10.21-3.63s-3.48-5.9-3.48-10.44,1.25-8.08,3.76-10.59c2.5-2.5,6.07-3.76,10.68-3.76,3.18,0,6.18.7,8.99,2.08l-2.79,7c-1.15-.5-2.21-.9-3.17-1.2-.97-.3-1.98-.45-3.03-.45-1.54,0-2.72.6-3.56,1.79-.84,1.2-1.26,2.88-1.26,5.06,0,4.39,1.62,6.59,4.87,6.59,2.78,0,5.44-.81,8-2.42v7.54c-2.44,1.61-5.37,2.42-8.79,2.42Z"/><path class="cls-2" d="m88.97,38.03c-4.57,0-8.12-1.22-10.65-3.65-2.53-2.43-3.79-5.89-3.79-10.38s1.17-8.19,3.51-10.67c2.34-2.48,5.69-3.72,10.03-3.72s7.33,1.08,9.58,3.24c2.25,2.16,3.38,5.26,3.38,9.31v4.22h-16.94c.06,1.54.63,2.74,1.68,3.61,1.06.87,2.5,1.31,4.32,1.31,1.66,0,3.19-.16,4.59-.47,1.4-.31,2.91-.85,4.54-1.61v6.81c-1.49.76-3.02,1.28-4.6,1.57-1.58.29-3.47.44-5.67.44Zm-.56-21.97c-1.11,0-2.05.35-2.8,1.05-.75.7-1.19,1.8-1.32,3.31h8.14c-.03-1.32-.41-2.38-1.13-3.17-.72-.79-1.68-1.19-2.89-1.19Z"/><path class="cls-2" d="m127.59,29.12c0,2.94-1,5.16-3,6.66-2,1.5-4.88,2.25-8.62,2.25-2.03,0-3.8-.11-5.31-.33-1.5-.22-3.04-.62-4.6-1.2v-7.58c1.47.65,3.08,1.18,4.83,1.6,1.75.42,3.31.63,4.69.63,2.05,0,3.08-.47,3.08-1.41,0-.48-.29-.92-.86-1.3-.57-.38-2.24-1.12-5-2.22-2.52-1.03-4.28-2.21-5.28-3.52-1-1.32-1.5-2.98-1.5-5,0-2.55.98-4.54,2.96-5.96,1.97-1.42,4.76-2.13,8.36-2.13,1.81,0,3.51.2,5.1.59,1.59.4,3.24.97,4.95,1.73l-2.57,6.1c-1.26-.56-2.59-1.05-4-1.44-1.41-.4-2.55-.59-3.44-.59-1.55,0-2.33.38-2.33,1.14,0,.47.27.87.81,1.2.54.33,2.1,1,4.69,2.02,1.92.79,3.36,1.57,4.3,2.33.94.76,1.64,1.65,2.08,2.68.44,1.03.67,2.27.67,3.74Z"/><path class="cls-2" d="m146.3,30.55c1.28,0,2.8-.31,4.58-.94v6.9c-1.28.55-2.49.94-3.65,1.17-1.16.23-2.51.35-4.06.35-3.18,0-5.48-.78-6.88-2.34-1.41-1.56-2.11-3.95-2.11-7.18v-11.31h-3.32v-3.85l4.22-2.98,2.45-5.77h6.2v5.5h6.74v7.1h-6.74v10.68c0,1.78.86,2.66,2.57,2.66Z"/><path class="cls-2" d="m172.15,38.03c-1.39,0-2.63-.23-3.73-.69-1.1-.46-2.19-1.29-3.27-2.48h-.44c.29,1.92.44,3.12.44,3.59v11.02h-9.47V10.1h7.7l1.33,3.49h.44c1.76-2.65,4.19-3.97,7.29-3.97s5.42,1.26,7.15,3.78c1.73,2.52,2.59,5.98,2.59,10.37s-.9,7.91-2.7,10.45c-1.8,2.54-4.24,3.82-7.33,3.82Zm-3.17-20.98c-1.39,0-2.36.5-2.92,1.49-.56.99-.86,2.47-.91,4.42v.75c0,2.36.32,4.06.94,5.11.63,1.05,1.62,1.57,2.98,1.57,1.21,0,2.09-.52,2.64-1.56.55-1.04.82-2.77.82-5.17s-.27-4.05-.82-5.08c-.55-1.03-1.46-1.54-2.74-1.54Z"/><path class="cls-2" d="m205.48,37.55l-1.82-3.63h-.19c-1.28,1.58-2.58,2.66-3.9,3.25-1.32.58-3.04.87-5.14.87-2.58,0-4.62-.78-6.11-2.33-1.49-1.55-2.23-3.73-2.23-6.54s1.02-5.1,3.05-6.53,4.98-2.23,8.84-2.41l4.58-.15v-.39c0-2.26-1.11-3.39-3.34-3.39-2,0-4.55.68-7.63,2.04l-2.74-6.25c3.2-1.65,7.24-2.47,12.11-2.47,3.52,0,6.25.87,8.18,2.62s2.9,4.18,2.9,7.32v18h-6.57Zm-7.03-6.2c1.15,0,2.13-.36,2.94-1.09.82-.73,1.22-1.67,1.22-2.84v-2.13l-2.18.1c-3.12.11-4.68,1.26-4.68,3.44,0,1.68.9,2.52,2.69,2.52Z"/><path class="cls-2" d="m239.69,29.12c0,2.94-1,5.16-3,6.66-2,1.5-4.88,2.25-8.62,2.25-2.03,0-3.8-.11-5.31-.33-1.5-.22-3.04-.62-4.6-1.2v-7.58c1.47.65,3.08,1.18,4.83,1.6,1.75.42,3.31.63,4.69.63,2.05,0,3.08-.47,3.08-1.41,0-.48-.29-.92-.86-1.3-.57-.38-2.24-1.12-5-2.22-2.52-1.03-4.28-2.21-5.28-3.52-1-1.32-1.5-2.98-1.5-5,0-2.55.98-4.54,2.96-5.96,1.97-1.42,4.76-2.13,8.36-2.13,1.81,0,3.51.2,5.1.59,1.59.4,3.24.97,4.95,1.73l-2.57,6.1c-1.26-.56-2.59-1.05-4-1.44-1.41-.4-2.55-.59-3.44-.59-1.55,0-2.33.38-2.33,1.14,0,.47.27.87.81,1.2.54.33,2.1,1,4.69,2.02,1.92.79,3.36,1.57,4.3,2.33.94.76,1.64,1.65,2.08,2.68.44,1.03.67,2.27.67,3.74Z"/><path class="cls-2" d="m253.48,38.03c-1.95,0-3.66-.56-5.12-1.67-1.46-1.11-2.59-2.75-3.39-4.92-.8-2.16-1.2-4.69-1.2-7.58,0-4.46.9-7.95,2.69-10.47,1.79-2.52,4.26-3.78,7.39-3.78,1.53,0,2.88.31,4.03.92,1.15.61,2.21,1.65,3.16,3.1h.19c-.31-2.15-.46-4.3-.46-6.45V-.15h9.55v37.7h-7.15l-2.04-3.46h-.36c-1.63,2.63-4.06,3.95-7.29,3.95Zm3.88-7.49c1.52,0,2.59-.48,3.21-1.43.62-.95.96-2.42,1.01-4.41v-.75c0-2.42-.35-4.15-1.04-5.17-.69-1.03-1.79-1.54-3.27-1.54-1.24,0-2.21.59-2.9,1.76s-1.03,2.84-1.03,5,.35,3.76,1.04,4.87c.69,1.11,1.69,1.67,2.98,1.67Z"/><path class="cls-2" d="m296.41,37.55l-1.19-3.42h-.56c-.79,1.26-1.89,2.22-3.31,2.9-1.41.67-3.07,1.01-4.98,1.01-3.02,0-5.37-.88-7.05-2.63s-2.52-4.23-2.52-7.43V10.1h9.47v15c0,1.79.25,3.15.76,4.07.51.92,1.34,1.38,2.51,1.38,1.63,0,2.79-.64,3.49-1.93.69-1.28,1.04-3.45,1.04-6.51v-12.02h9.47v27.45h-7.15Z"/><path class="cls-2" d="m319.57,37.55h-9.47V-.15h9.47v37.7Z"/><path class="cls-2" d="m345.69,37.55l-1.19-3.42h-.56c-.79,1.26-1.89,2.22-3.31,2.9s-3.07,1.01-4.98,1.01c-3.02,0-5.37-.88-7.05-2.63-1.68-1.75-2.52-4.23-2.52-7.43V10.1h9.47v15c0,1.79.25,3.15.76,4.07.51.92,1.34,1.38,2.51,1.38,1.63,0,2.79-.64,3.49-1.93.69-1.28,1.04-3.45,1.04-6.51v-12.02h9.47v27.45h-7.15Z"/><path class="cls-2" d="m365.19,23.54l-8.38-13.45h10.76l4.17,7.7,4.26-7.7h10.78l-8.6,13.45,8.94,14h-10.76l-4.63-8.33-4.6,8.33h-10.78l8.84-14Z"/><path class="cls-2" d="m403.88,38.03c-4.57,0-8.12-1.22-10.65-3.65-2.53-2.43-3.79-5.89-3.79-10.38s1.17-8.19,3.51-10.67c2.34-2.48,5.69-3.72,10.03-3.72s7.33,1.08,9.58,3.24,3.38,5.26,3.38,9.31v4.22h-16.94c.06,1.54.63,2.74,1.68,3.61,1.06.87,2.5,1.31,4.32,1.31,1.66,0,3.19-.16,4.59-.47,1.4-.31,2.91-.85,4.54-1.61v6.81c-1.49.76-3.02,1.28-4.6,1.57-1.58.29-3.47.44-5.67.44Zm-.56-21.97c-1.11,0-2.05.35-2.8,1.05-.75.7-1.19,1.8-1.32,3.31h8.14c-.03-1.32-.41-2.38-1.13-3.17-.72-.79-1.68-1.19-2.89-1.19Z"/><rect class="cls-1" x="-4.51" y="-34.32" width="426.64" height="102.82"/></svg>