<svg width="85" height="85" viewBox="0 0 85 85" fill="none" xmlns="http://www.w3.org/2000/svg">
<path d="M36.8086 71.3111C36.6856 71.3111 36.5657 71.2632 36.4757 71.1762C36.3707 71.0742 36.3198 70.9303 36.3348 70.7834C36.3468 70.6724 37.4803 59.4784 29.8397 51.2921C23.9713 45.0009 14.5645 42.0742 1.89216 42.587C1.76322 42.593 1.64027 42.545 1.54731 42.458C1.45435 42.3711 1.40038 42.2511 1.39738 42.1222L0.878611 22.9727C0.875613 22.8438 0.923591 22.7179 1.01655 22.6249C1.10651 22.5349 1.22945 22.484 1.3554 22.484H1.3614C2.00011 22.49 65.5627 23.1497 80.2801 13.7609C80.4181 13.6739 80.589 13.6619 80.7359 13.7309C80.8828 13.7998 80.9848 13.9378 81.0058 14.0997L84.1124 37.3873C84.1304 37.5222 84.0884 37.6572 84.0015 37.7591C83.9115 37.8611 83.7856 37.9211 83.6476 37.9241C83.4887 37.9241 67.7757 38.2839 60.0122 47.9606C55.925 53.0523 54.7165 59.8443 56.4198 68.1475C56.4468 68.2765 56.4198 68.4114 56.3418 68.5194C56.2669 68.6273 56.1469 68.6993 56.018 68.7143L36.8685 71.3021C36.8475 71.3021 36.8265 71.3051 36.8056 71.3051L36.8086 71.3111ZM4.67791 41.5794C16.2347 41.5794 24.9279 44.6261 30.5444 50.6534C37.4413 58.0541 37.4473 67.7907 37.3213 70.2856L55.3882 67.8447C53.775 59.4754 55.0824 52.5875 59.2745 47.3668C66.4953 38.3769 80.2321 37.1594 83.1019 37.0035L80.1602 14.9513C73.5121 18.7566 58.4439 21.3415 35.3422 22.6339C19.3534 23.5275 4.68391 23.4675 1.84118 23.4465L2.33296 41.6214C3.12461 41.5944 3.90726 41.5824 4.67491 41.5824L4.67791 41.5794Z" fill="#E9364B"/>
<path d="M36.8805 68.6003C36.6826 68.6003 36.4967 68.4744 36.4307 68.2765C33.0602 58.192 2.4079 42.635 2.09904 42.479C1.86514 42.3621 1.76918 42.0742 1.88913 41.8403C2.00608 41.6064 2.29395 41.5105 2.52784 41.6304C3.80527 42.2751 33.8398 57.5203 37.3333 67.9736C37.4172 68.2225 37.2823 68.4924 37.0334 68.5764C36.9824 68.5943 36.9315 68.6003 36.8835 68.6003H36.8805Z" fill="#E9364B"/>
<path d="M55.4872 65.7306C55.4872 65.7306 55.4752 65.7306 55.4692 65.7306C55.2053 65.7216 55.0014 65.5027 55.0104 65.2388C55.2053 59.5683 59.8443 53.1092 68.8013 46.0474C75.4163 40.8297 82.0673 37.1953 82.1333 37.1594C82.3642 37.0334 82.6521 37.1204 82.778 37.3513C82.9039 37.5822 82.817 37.87 82.5861 37.996C82.3252 38.1369 56.4048 52.3746 55.961 65.2718C55.952 65.5297 55.7421 65.7306 55.4872 65.7306Z" fill="#E9364B"/>
<path d="M43.0818 40.407C42.0712 40.407 41.0966 40.0741 40.287 39.4414C39.3274 38.6917 38.7187 37.6152 38.5718 36.4097C38.3679 34.7485 39.7862 31.0841 41.1986 27.7196C41.3545 27.3508 41.4985 27.0029 41.5344 26.898C41.5734 26.7001 41.7354 26.5412 41.9453 26.5142C42.1912 26.4842 42.3891 26.4572 44.869 30.0676C46.5632 32.5355 47.4868 34.2987 47.6097 35.3032C47.9156 37.7951 46.1374 40.0711 43.6455 40.377C43.4566 40.401 43.2677 40.413 43.0818 40.413V40.407ZM42.1432 27.9205C42.1222 27.9715 42.0982 28.0255 42.0742 28.0855C41.3185 29.8847 39.3154 34.6585 39.5163 36.2928C39.6333 37.2464 40.1161 38.101 40.8747 38.6917C41.6334 39.2855 42.578 39.5463 43.5316 39.4294C45.5017 39.1865 46.911 37.3873 46.6682 35.4172C46.4732 33.8249 43.4146 29.5758 42.1462 27.9235L42.1432 27.9205Z" fill="#E9364B"/>
<path d="M28.3373 58.4439L27.8306 57.7512C27.8546 57.7332 28.4363 57.3074 29.2129 56.7886L29.6897 57.5023C28.9281 58.012 28.3433 58.4379 28.3373 58.4439ZM31.0721 56.6237L30.6343 55.886C31.258 55.5172 31.7768 55.2533 32.1786 55.0974L32.4845 55.898C32.1276 56.0359 31.6509 56.2788 31.0691 56.6237H31.0721Z" fill="#E9364B"/>
<path d="M61.1397 53.8559L60.315 53.574L60.6239 52.6714L61.4485 52.9533L61.1397 53.8559ZM58.5698 52.9803L56.8246 52.3836L57.1334 51.481L58.8787 52.0777L58.5698 52.9803Z" fill="#E9364B"/>
<path d="M34.8594 54.1468L34.2687 53.3971C34.2927 53.3791 34.8414 52.9473 35.9389 52.4046L36.3647 53.2592C35.3662 53.754 34.8654 54.1438 34.8594 54.1468ZM38.011 52.5485L37.6782 51.6549C38.2509 51.442 38.8536 51.2441 39.4714 51.0732L39.7262 51.9907C39.1355 52.1557 38.5598 52.3416 38.011 52.5455V52.5485ZM54.1408 51.7029C53.5411 51.5949 52.9323 51.496 52.3386 51.415L52.4705 50.4704C53.0793 50.5544 53.697 50.6533 54.3117 50.7643L54.1408 51.7029ZM41.4835 51.5769L41.2975 50.6413C41.9003 50.5214 42.521 50.4194 43.1507 50.3415L43.2707 51.2861C42.6649 51.364 42.0622 51.463 41.4835 51.5769ZM50.5274 51.2051C49.9157 51.1481 49.304 51.1061 48.7102 51.0791L48.7522 50.1256C49.3609 50.1526 49.9876 50.1945 50.6144 50.2545L50.5274 51.2051ZM45.0758 51.1121L45.0129 50.1616C45.6246 50.1226 46.2513 50.0986 46.884 50.0926L46.893 51.0462C46.2813 51.0522 45.6696 51.0732 45.0788 51.1121H45.0758Z" fill="#E9364B"/>
</svg>
