<svg width="74" height="74" viewBox="0 0 74 74" fill="none" xmlns="http://www.w3.org/2000/svg">
<g clip-path="url(#clip0_17_255)">
<path d="M47.429 73.8445C45.0158 73.8445 42.5098 73.2567 40.2203 72.1305C36.9099 70.5031 34.212 68.0899 32.8136 65.5035C30.982 62.1188 30.6169 57.9544 31.8359 54.3655C32.3371 52.8866 33.1725 51.5996 33.9831 50.3497C34.2491 49.9351 34.5214 49.5205 34.7751 49.0997C35.8889 47.2744 36.947 45.3685 37.968 43.5308L38.2279 43.0605C38.8838 41.8848 39.4778 40.5607 40.1028 38.9023C40.4988 37.8566 40.8638 36.7738 41.2227 35.7218C41.4269 35.1154 41.6373 34.509 41.8477 33.9026C42.2932 32.6342 42.7202 31.3533 43.1533 30.0724C44.2176 26.8981 45.319 23.6124 46.6865 20.5124C48.2891 16.8925 50.4734 14.6588 53.3631 13.6997C57.2614 12.4064 61.9084 13.8977 64.9527 15.7231C68.9438 18.1177 71.5489 22.5358 71.7531 27.2508C71.9325 31.4523 69.7915 34.8803 67.7187 38.1969C67.1679 39.0756 66.5987 39.9852 66.0913 40.8886C64.73 43.2956 63.8823 46.0739 63.4058 49.6257C63.2697 50.6714 63.1583 51.7357 63.0531 52.7691C62.9417 53.8829 62.8241 55.0338 62.6695 56.16L62.5643 56.9272C62.1002 60.4048 61.6175 63.9998 59.6189 67.0566C57.1871 70.7754 53.3817 73.2072 49.174 73.727C48.5985 73.795 48.0169 73.8322 47.429 73.8322V73.8445ZM40.8453 39.187C40.2079 40.8824 39.5954 42.2375 38.9209 43.4503L38.661 43.9206C37.6338 45.7707 36.5757 47.6828 35.4558 49.5205C35.1959 49.9475 34.9236 50.3682 34.6514 50.789C33.8346 52.0513 33.0611 53.2393 32.5908 54.6254C31.4399 58.0101 31.7864 61.9331 33.5128 65.126C34.837 67.5702 37.4049 69.8658 40.573 71.4189C43.2833 72.7493 46.3029 73.2938 49.075 72.9535C53.0413 72.4647 56.6426 70.1628 58.9444 66.6358C60.8441 63.7276 61.3143 60.2253 61.766 56.8344L61.8712 56.0671C62.0259 54.9534 62.1435 53.8086 62.2549 52.701C62.3601 51.6615 62.4714 50.591 62.6138 49.5329C63.1026 45.8697 63.9813 43.0048 65.3921 40.505C65.9118 39.5892 66.4811 38.6672 67.038 37.7824C69.049 34.5709 71.1219 31.2481 70.9548 27.2941C70.763 22.839 68.3065 18.6746 64.5443 16.4161C61.6485 14.6773 57.2614 13.2541 53.6168 14.4669C50.9499 15.3518 48.9265 17.4371 47.4167 20.8403C46.0616 23.9094 44.9663 27.1704 43.9082 30.3323C43.4751 31.6194 43.0481 32.9064 42.5964 34.1749C42.386 34.7751 42.1818 35.3815 41.9715 35.9879C41.6126 37.0398 41.2413 38.1289 40.8453 39.1932V39.187Z" fill="#E9364B"/>
<path d="M47.7384 66.1717C47.2125 66.1284 46.6865 66.0418 46.1606 65.9118L46.3524 65.1384C46.835 65.2559 47.3239 65.3364 47.8003 65.3735L47.7384 66.1717ZM49.3411 66.1593L49.2668 65.3611C49.3658 65.3487 49.4648 65.3426 49.57 65.324C49.9475 65.2745 50.3311 65.194 50.7024 65.0889L50.9251 65.8561C50.5167 65.9737 50.096 66.0603 49.6752 66.116C49.5638 66.1284 49.4524 66.1408 49.3472 66.1532L49.3411 66.1593ZM44.6508 65.4106C44.3352 65.2807 44.0196 65.1322 43.7164 64.9713C43.5555 64.8847 43.3946 64.798 43.2338 64.7052L43.636 64.0122C43.7845 64.0988 43.9392 64.1854 44.0877 64.2659C44.3723 64.4144 44.6631 64.5505 44.9601 64.6743L44.6569 65.4106H44.6508ZM52.4164 65.2807L52.0637 64.5629C52.4968 64.3463 52.9176 64.0926 53.3198 63.8018L53.79 64.4515C53.3507 64.7671 52.8928 65.0455 52.4226 65.2807H52.4164ZM41.9096 63.8266C41.4826 63.5048 41.0742 63.1583 40.703 62.7932L41.2599 62.2239C41.6064 62.5643 41.9838 62.886 42.386 63.1892L41.9034 63.8266H41.9096ZM55.0028 63.4182L54.4398 62.8489C54.7863 62.5086 55.108 62.1311 55.405 61.7351L56.0486 62.2116C55.7268 62.6385 55.3803 63.0469 55.009 63.4182H55.0028ZM39.6511 61.6052C39.3169 61.1658 39.0323 60.7079 38.8033 60.25L39.1375 60.083L39.4716 59.8169L39.5397 59.9468C39.7253 60.3119 39.9852 60.7265 40.2884 61.1287L39.6511 61.6113V61.6052ZM56.9025 60.8688L56.1971 60.4976C56.4198 60.083 56.6117 59.6251 56.7849 59.1424L57.5398 59.4085C57.3542 59.9283 57.1438 60.4171 56.9025 60.8688ZM38.1969 58.7712C38.036 58.27 37.9123 57.7502 37.8257 57.2242L38.6177 57.0943C38.6981 57.5831 38.8095 58.0596 38.9642 58.5298L38.2031 58.7774L38.1969 58.7712ZM57.973 57.8925L57.1933 57.7131C57.2985 57.2675 57.3913 56.7849 57.4779 56.2342L58.27 56.3641C58.1772 56.9334 58.0843 57.4346 57.973 57.8987V57.8925ZM37.6833 55.634V55.4484C37.6833 54.9781 37.7143 54.5016 37.7762 54.0375L38.5682 54.1427C38.5125 54.5697 38.4816 55.009 38.4816 55.4484V55.6092L37.6833 55.6278V55.634ZM58.4865 54.8234L57.6945 54.7244L57.8863 53.2022L58.6784 53.3012L58.4865 54.8296V54.8234ZM38.8776 52.7134L38.1103 52.4844L38.1598 52.3297C38.2959 51.9028 38.4754 51.4696 38.7167 50.9994L39.4283 51.3583C39.2117 51.7914 39.0447 52.1874 38.9209 52.5772L38.8776 52.7134ZM58.8392 51.7666L58.041 51.6924L58.0843 51.2345C58.1153 50.8756 58.1524 50.5229 58.1895 50.164L58.9878 50.2445C58.9506 50.5972 58.9197 50.9561 58.8826 51.3088L58.8392 51.7666ZM40.1646 50.0526L39.4778 49.6381L39.552 49.5081C39.7315 49.2111 39.9109 48.9079 40.0904 48.6047L40.2513 48.3201L40.9505 48.7099L40.7896 48.9945C40.6102 49.3039 40.4307 49.6133 40.2451 49.9165L40.1708 50.0465L40.1646 50.0526ZM59.1548 48.7285L58.3628 48.6233C58.437 48.0911 58.5175 47.5714 58.6165 47.0825L59.4023 47.2372C59.3095 47.7075 59.2291 48.2087 59.161 48.7285H59.1548ZM41.6868 47.361L40.9814 46.9835C41.2227 46.5318 41.4579 46.0801 41.693 45.6284L42.4046 45.9935C42.1695 46.4514 41.9281 46.9031 41.6868 47.3548V47.361ZM59.7427 45.7707L58.9754 45.5542C59.1177 45.0406 59.2848 44.5394 59.4704 44.0629L60.2191 44.3537C60.0459 44.8054 59.885 45.2819 59.7488 45.7769L59.7427 45.7707ZM43.11 44.626L42.3984 44.2609C42.615 43.8401 42.8192 43.3884 43.0234 42.8934L43.7659 43.1966C43.5555 43.7102 43.3389 44.1805 43.1162 44.6198L43.11 44.626ZM60.8626 42.9182L60.4728 42.8006L60.1201 42.6088L60.5099 42.7264L60.1572 42.5407C60.3862 42.1076 60.6275 41.6806 60.8688 41.2537L61.5618 41.6497C61.3205 42.0705 61.0854 42.485 60.8626 42.912V42.9182ZM44.329 41.6992L43.5555 41.4826L43.5803 41.4084C43.7411 40.9567 43.8958 40.4678 44.0505 39.9852L44.8116 40.2265C44.6569 40.7153 44.4961 41.2104 44.3228 41.693L44.329 41.6992ZM62.3291 40.3317L61.6361 39.9357C61.8898 39.4964 62.1373 39.0508 62.3663 38.6053L63.0779 38.9766C62.8427 39.4345 62.589 39.8862 62.3291 40.3379V40.3317ZM45.2819 38.7724L44.5208 38.5311L44.7188 37.9247C44.8116 37.64 44.9044 37.3554 44.9973 37.0708L45.7584 37.3121C45.6655 37.5967 45.5727 37.8875 45.4799 38.1722L45.2881 38.7724H45.2819ZM63.7461 37.5534L63.0098 37.2502C63.214 36.7614 63.3687 36.3035 63.4924 35.8518L64.2659 36.056C64.136 36.5448 63.9689 37.0336 63.7523 37.5534H63.7461ZM46.2162 35.8456L45.4552 35.6104L45.913 34.144L46.6741 34.3853L46.2162 35.8518V35.8456ZM64.5567 34.4781L63.7585 34.4038C63.7833 34.144 63.7956 33.8841 63.7956 33.618C63.7956 33.5128 63.7956 33.4014 63.7956 33.2962C63.7956 33.1787 63.7833 33.0611 63.7771 32.9435L64.5753 32.8817C64.5877 33.0116 64.5938 33.1415 64.6 33.2653C64.6 33.3829 64.6062 33.5004 64.6062 33.6242C64.6062 33.9088 64.5938 34.1996 64.5629 34.4843L64.5567 34.4781ZM47.1444 32.9188L46.3833 32.6713C46.5442 32.1824 46.7051 31.6936 46.8721 31.211L47.6271 31.4708C47.46 31.9535 47.2991 32.4361 47.1444 32.9188ZM63.5543 31.477C63.4429 30.9944 63.2944 30.5241 63.1212 30.0662L63.8637 29.7754C64.0555 30.2642 64.2164 30.7778 64.334 31.2976L63.5543 31.477ZM48.1468 30.0291L47.3981 29.7507C47.559 29.3237 47.7261 28.8967 47.8993 28.476L47.9674 28.3089L48.7037 28.6183L48.6357 28.7792C48.4686 29.1938 48.3015 29.6145 48.1468 30.0291ZM62.4776 28.7359C62.2301 28.3089 61.9517 27.9005 61.6485 27.5231L62.2734 27.0219C62.6076 27.4303 62.9108 27.8758 63.1769 28.3399L62.4838 28.7421L62.4776 28.7359ZM49.3596 27.2817L48.6666 26.8795C48.9512 26.3907 49.2544 25.9452 49.5824 25.5616L50.195 26.0751C49.898 26.4217 49.6195 26.83 49.3596 27.2756V27.2817ZM60.6337 26.4588C60.3243 26.1803 59.9902 25.9328 59.6498 25.7101C59.588 25.6667 59.5199 25.6296 59.458 25.5863L59.8726 24.9057C59.9469 24.949 60.0149 24.9923 60.083 25.0356C60.4542 25.2769 60.8193 25.5554 61.1596 25.8524L60.6275 26.4526L60.6337 26.4588ZM51.2407 25.0913L50.7642 24.4478C51.2098 24.1198 51.6924 23.8537 52.1998 23.6557L52.4906 24.4044C52.0513 24.5777 51.6305 24.8067 51.2407 25.0913ZM58.1462 24.8995C57.6883 24.6953 57.2181 24.522 56.754 24.3921L56.9767 23.6248C57.4779 23.7671 57.9791 23.9527 58.468 24.1693L58.14 24.8995H58.1462ZM55.3184 24.1012C54.8234 24.0456 54.3408 24.0332 53.8705 24.0827L53.79 23.2845C54.316 23.235 54.8543 23.2412 55.405 23.303L55.3122 24.0951L55.3184 24.1012Z" fill="#E9364B"/>
<path d="M35.5424 48.2521L32.0525 44.8735C30.9635 43.8154 30.7902 42.1447 31.6503 40.901C32.5166 39.6449 33.321 38.2279 34.045 36.681C35.066 34.5091 35.6724 32.331 36.0003 30.8892C36.3406 29.3918 37.7019 28.377 39.2241 28.4822L43.8092 28.8225L43.7474 29.6208L39.1684 29.2804C38.0299 29.2 37.0337 29.9549 36.78 31.0687C36.4396 32.5476 35.8209 34.7875 34.7689 37.0213C34.0264 38.6054 33.1973 40.0657 32.3062 41.3527C31.6689 42.2747 31.7926 43.5122 32.6032 44.2981L36.0931 47.6766L35.5362 48.2521H35.5424Z" fill="#E9364B"/>
<path d="M62.224 58.1524L62.1807 57.3542L67.4897 57.0572C68.6097 56.9829 69.507 56.1166 69.6121 54.9966C69.7607 53.4373 70.07 51.7914 70.5217 50.0959C71.1653 47.7075 72.1244 45.5975 72.8236 44.2485C73.3434 43.2337 73.0587 42.0148 72.1491 41.3403L67.3784 38.3454L67.8053 37.671L72.6008 40.6844C73.8569 41.6064 74.2406 43.2585 73.5414 44.6198C72.8607 45.9316 71.9202 47.9859 71.3014 50.3063C70.8559 51.9585 70.5589 53.5611 70.4104 55.0771C70.2619 56.5869 69.0552 57.7502 67.5393 57.8554L62.224 58.1524Z" fill="#E9364B"/>
<path d="M21.6942 36.4643C21.125 36.4643 20.5619 36.3901 20.0173 36.2478C6.59613 32.6774 4.47992 12.0537 4.46136 11.8433C4.44279 11.6267 4.60368 11.4287 4.82025 11.4102C5.04919 11.3854 5.23483 11.5525 5.25958 11.7691C5.27814 11.9733 7.34485 32.0463 20.2277 35.4743C21.0569 35.6971 21.9603 35.7218 22.8328 35.5547C23.7052 35.3877 24.5282 35.0226 25.215 34.509C35.8889 26.5083 30.2952 7.12207 30.2395 6.92406C30.1776 6.71367 30.2952 6.49092 30.5118 6.42904C30.7221 6.36716 30.9449 6.48473 31.0068 6.7013C31.0687 6.89931 36.8109 26.8177 25.6977 35.1525C24.9118 35.7404 23.9775 36.155 22.9875 36.3468C22.5605 36.4272 22.1336 36.4705 21.7004 36.4705L21.6942 36.4643Z" fill="#E9364B"/>
<path d="M3.4654 12.2207C1.84422 12.2207 0.390095 11.0697 0.0683324 9.41761C-0.104924 8.50801 0.080708 7.58603 0.600478 6.81875C1.12025 6.05147 1.90609 5.5317 2.8095 5.35845L30.1098 0.0617374C31.9847 -0.30334 33.8039 0.928022 34.169 2.80291C34.5341 4.67779 33.3027 6.49699 31.4278 6.86207L25.3638 8.03774C25.1473 8.08105 24.9369 7.93874 24.8936 7.72216C24.8502 7.50559 24.9926 7.29521 25.2091 7.2519L31.2731 6.07622C32.7149 5.79778 33.6616 4.39316 33.3831 2.95141C33.1047 1.50967 31.7001 0.569132 30.2645 0.841393L2.95801 6.14429C1.51626 6.42274 0.56954 7.82736 0.847988 9.2691C1.12644 10.7108 2.53724 11.6576 3.96661 11.3791L20.0547 8.2605C20.2713 8.21718 20.4817 8.3595 20.525 8.57607C20.5683 8.79264 20.426 9.00303 20.2094 9.04634L4.1213 12.165C3.89855 12.2083 3.67579 12.2268 3.45922 12.2268L3.4654 12.2207Z" fill="#E9364B"/>
<path d="M24.2126 45.1086C23.0926 45.1086 22.084 44.3104 21.8675 43.1719L20.5247 36.2602C20.4814 36.0436 20.6237 35.8332 20.8403 35.7899C21.0569 35.7466 21.2673 35.8889 21.3106 36.1055L22.6533 43.0172C22.7338 43.438 22.9751 43.7968 23.3278 44.032C23.6805 44.2733 24.1074 44.3599 24.522 44.2733C24.9428 44.1929 25.3017 43.9515 25.5368 43.5988C25.7719 43.2461 25.8648 42.8192 25.7781 42.4046L24.4168 35.3877C24.3735 35.1711 24.5158 34.9607 24.7324 34.9174C24.949 34.8741 25.1594 35.0164 25.2027 35.233L26.564 42.2499C26.6877 42.8749 26.5578 43.5122 26.1989 44.0444C25.84 44.5765 25.2955 44.9354 24.6705 45.053C24.5158 45.0839 24.3673 45.0963 24.2126 45.0963V45.1086Z" fill="#E9364B"/>
<path d="M11.0822 29.5279C10.8966 29.5279 10.7295 29.398 10.6924 29.2061C10.6491 28.9896 10.7914 28.7792 11.008 28.7359L22.2759 26.5516C22.4924 26.5083 22.7028 26.6506 22.7461 26.8672C22.7894 27.0837 22.6471 27.2941 22.4305 27.3374L11.1627 29.5217C11.1627 29.5217 11.1132 29.5279 11.0884 29.5279H11.0822Z" fill="#E9364B"/>
<path d="M25.5863 28.3584C25.4007 28.3584 25.2336 28.2285 25.1965 28.0367C25.1532 27.8201 25.2955 27.6097 25.5121 27.5664L30.7655 26.5454C30.9882 26.5021 31.1924 26.6444 31.2357 26.861C31.279 27.0776 31.1367 27.288 30.9202 27.3313L25.6668 28.3522C25.6668 28.3522 25.6173 28.3584 25.5925 28.3584H25.5863Z" fill="#E9364B"/>
<path d="M13.9781 32.7208C13.7925 32.7208 13.6254 32.5909 13.5883 32.3991C13.545 32.1825 13.6873 31.9721 13.9038 31.9288L20.0173 30.7407C20.2339 30.6974 20.4443 30.8397 20.4876 31.0563C20.5309 31.2729 20.3886 31.4833 20.172 31.5266L14.0585 32.7146C14.0585 32.7146 14.009 32.7208 13.9843 32.7208H13.9781Z" fill="#E9364B"/>
<path d="M37.4606 39.5459C38.2603 39.5459 38.9086 38.8976 38.9086 38.098C38.9086 37.2983 38.2603 36.65 37.4606 36.65C36.661 36.65 36.0127 37.2983 36.0127 38.098C36.0127 38.8976 36.661 39.5459 37.4606 39.5459Z" fill="#E9364B"/>
<path d="M66.9824 50.1517C67.782 50.1517 68.4303 49.5034 68.4303 48.7037C68.4303 47.9041 67.782 47.2558 66.9824 47.2558C66.1827 47.2558 65.5344 47.9041 65.5344 48.7037C65.5344 49.5034 66.1827 50.1517 66.9824 50.1517Z" fill="#E9364B"/>
</g>
<defs>
<clipPath id="clip0_17_255">
<rect width="73.8878" height="73.8445" fill="white"/>
</clipPath>
</defs>
</svg>
