<svg width="77" height="75" viewBox="0 0 77 75" fill="none" xmlns="http://www.w3.org/2000/svg">
<g clip-path="url(#clip0_17_252)">
<path d="M14.1719 74.3823C14.1309 74.3823 14.0899 74.3823 14.0488 74.3686L0.321427 70.47C0.0888752 70.4016 -0.0479199 70.1622 0.0136379 69.9228L19.7395 0.321427C19.8079 0.0888752 20.0473 -0.0479199 20.2867 0.0136379L34.0141 3.90546C34.1303 3.93966 34.2193 4.01489 34.2808 4.11749C34.3355 4.22009 34.3492 4.3432 34.3219 4.45264L22.1676 47.3516C22.1197 47.5294 21.9624 47.6594 21.7777 47.6731C21.039 47.7346 20.3414 48.0082 19.7532 48.4596L18.9324 49.1026C17.2635 50.4021 16.9626 52.8166 18.2553 54.4855L19.5001 56.086C19.589 56.1954 19.6164 56.3459 19.5753 56.4758L14.596 74.0608C14.5618 74.1703 14.4866 74.266 14.384 74.3276C14.3156 74.3618 14.2403 74.3823 14.1651 74.3823H14.1719ZM0.991723 69.7449L13.871 73.3974L18.6725 56.4553L17.5645 55.0326C15.9639 52.9807 16.3401 50.0054 18.3921 48.4117L19.2128 47.7688C19.8489 47.2695 20.6013 46.948 21.3947 46.8318L33.3506 4.63731L20.4713 0.984883L0.984883 69.7449H0.991723Z" fill="#E9364B"/>
<path d="M21.5658 8.24191C21.5247 8.24191 21.4837 8.24191 21.4427 8.22823L18.3374 7.3459C18.1049 7.2775 17.9681 7.03811 18.0296 6.79872C18.098 6.56617 18.3374 6.42938 18.5768 6.49093L21.6821 7.37326C21.9146 7.44166 22.0514 7.68105 21.9898 7.92044C21.9351 8.11196 21.7573 8.24191 21.5658 8.24191Z" fill="#E9364B"/>
<path d="M20.7176 11.2309C20.6766 11.2309 20.6356 11.2309 20.5945 11.2172L17.4893 10.3349C17.2567 10.2665 17.1199 10.0271 17.1815 9.78767C17.2499 9.55512 17.4893 9.41833 17.7287 9.47989L20.8339 10.3622C21.0665 10.4306 21.2033 10.67 21.1417 10.9094C21.087 11.1009 20.9092 11.2309 20.7176 11.2309Z" fill="#E9364B"/>
<path d="M19.8695 14.213C19.8285 14.213 19.7874 14.213 19.7464 14.1994L16.6411 13.317C16.4086 13.2486 16.2718 13.0092 16.3333 12.7699C16.4017 12.5373 16.6411 12.4005 16.8805 12.4621L19.9858 13.3444C20.2183 13.4128 20.3551 13.6522 20.2936 13.8916C20.2388 14.0831 20.061 14.213 19.8695 14.213Z" fill="#E9364B"/>
<path d="M19.0282 17.1952C18.9871 17.1952 18.9461 17.1952 18.9051 17.1815L15.7998 16.2991C15.5673 16.2308 15.4305 15.9914 15.492 15.752C15.5604 15.5194 15.7998 15.3826 16.0392 15.4442L19.1445 16.3265C19.377 16.3949 19.5138 16.6343 19.4523 16.8737C19.3975 17.0652 19.2197 17.1952 19.0282 17.1952Z" fill="#E9364B"/>
<path d="M18.18 20.1841C18.139 20.1841 18.098 20.1841 18.0569 20.1704L14.9517 19.2881C14.7191 19.2197 14.5823 18.9803 14.6439 18.7409C14.7123 18.5084 14.9517 18.3716 15.1911 18.4331L18.2963 19.3155C18.5289 19.3839 18.6657 19.6233 18.6041 19.8626C18.5494 20.0542 18.3716 20.1841 18.18 20.1841Z" fill="#E9364B"/>
<path d="M17.3319 23.1662C17.2909 23.1662 17.2498 23.1662 17.2088 23.1525L14.1035 22.2702C13.871 22.2018 13.7342 21.9624 13.7957 21.723C13.8641 21.4905 14.1035 21.3537 14.3429 21.4152L17.4482 22.2976C17.6807 22.366 17.8175 22.6054 17.756 22.8448C17.7012 23.0363 17.5234 23.1662 17.3319 23.1662Z" fill="#E9364B"/>
<path d="M16.4907 26.1552C16.4497 26.1552 16.4086 26.1552 16.3676 26.1416L13.2623 25.2592C13.0298 25.1908 12.893 24.9514 12.9546 24.7121C13.023 24.4795 13.2623 24.3427 13.5017 24.4043L16.607 25.2866C16.8395 25.355 16.9763 25.5944 16.9148 25.8338C16.8601 26.0253 16.6822 26.1552 16.4907 26.1552Z" fill="#E9364B"/>
<path d="M15.6426 29.1374C15.6015 29.1374 15.5605 29.1374 15.5194 29.1237L12.4142 28.2413C12.1816 28.173 12.0449 27.9336 12.1064 27.6942C12.1748 27.4616 12.4142 27.3248 12.6536 27.3864L15.7588 28.2687C15.9914 28.3371 16.1282 28.5765 16.0666 28.8159C16.0119 29.0074 15.8341 29.1374 15.6426 29.1374Z" fill="#E9364B"/>
<path d="M14.7944 32.1195C14.7534 32.1195 14.7123 32.1195 14.6713 32.1058L11.5661 31.2235C11.3335 31.1551 11.1967 30.9157 11.2583 30.6763C11.3267 30.4437 11.5661 30.3069 11.8054 30.3685L14.9107 31.2508C15.1432 31.3192 15.28 31.5586 15.2185 31.798C15.1638 31.9895 14.9859 32.1195 14.7944 32.1195Z" fill="#E9364B"/>
<path d="M13.9531 35.1085C13.9121 35.1085 13.871 35.1085 13.83 35.0948L10.7247 34.2125C10.4922 34.1441 10.3554 33.9047 10.417 33.6653C10.4854 33.4327 10.7247 33.296 10.9641 33.3575L14.0694 34.2398C14.3019 34.3082 14.4387 34.5476 14.3772 34.787C14.3225 34.9785 14.1446 35.1085 13.9531 35.1085Z" fill="#E9364B"/>
<path d="M13.105 38.0906C13.0639 38.0906 13.0229 38.0906 12.9819 38.0769L9.8766 37.1946C9.64405 37.1262 9.50726 36.8868 9.56881 36.6474C9.63721 36.4149 9.8766 36.2781 10.116 36.3396L13.2212 37.222C13.4538 37.2904 13.5906 37.5297 13.529 37.7691C13.4743 37.9606 13.2965 38.0906 13.105 38.0906Z" fill="#E9364B"/>
<path d="M12.2568 41.0796C12.2158 41.0796 12.1747 41.0796 12.1337 41.0659L9.02846 40.1835C8.79591 40.1152 8.65911 39.8758 8.72067 39.6364C8.78907 39.4038 9.02846 39.267 9.26785 39.3286L12.3731 40.2109C12.6057 40.2793 12.7424 40.5187 12.6809 40.7581C12.6262 40.9496 12.4483 41.0796 12.2568 41.0796Z" fill="#E9364B"/>
<path d="M11.4155 44.0617C11.3745 44.0617 11.3334 44.0617 11.2924 44.0481L8.18715 43.1657C7.9546 43.0973 7.8178 42.8579 7.87936 42.6185C7.94776 42.386 8.18715 42.2492 8.42654 42.3108L11.5318 43.1931C11.7643 43.2615 11.9011 43.5009 11.8396 43.7403C11.7849 43.9318 11.607 44.0617 11.4155 44.0617Z" fill="#E9364B"/>
<path d="M10.5674 47.0438C10.5263 47.0438 10.4853 47.0439 10.4443 47.0302L7.339 46.1478C7.10645 46.0794 6.96966 45.8401 7.03122 45.6007C7.09961 45.3681 7.33901 45.2313 7.5784 45.2929L10.6836 46.1752C10.9162 46.2436 11.053 46.483 10.9914 46.7224C10.9367 46.9139 10.7589 47.0438 10.5674 47.0438Z" fill="#E9364B"/>
<path d="M9.71935 50.0328C9.67831 50.0328 9.63727 50.0328 9.59623 50.0191L6.49098 49.1368C6.25843 49.0684 6.12164 48.829 6.18319 48.5896C6.25159 48.3571 6.49098 48.2203 6.73037 48.2818L9.83562 49.1642C10.0682 49.2326 10.205 49.4719 10.1434 49.7113C10.0887 49.9029 9.91086 50.0328 9.71935 50.0328Z" fill="#E9364B"/>
<path d="M8.87804 53.0149C8.837 53.0149 8.79596 53.0149 8.75492 53.0012L5.64967 52.1189C5.41712 52.0505 5.28033 51.8111 5.34188 51.5717C5.41028 51.3392 5.64967 51.2024 5.88907 51.2639L8.99431 52.1463C9.22687 52.2147 9.36366 52.4541 9.3021 52.6935C9.24739 52.885 9.06955 53.0149 8.87804 53.0149Z" fill="#E9364B"/>
<path d="M8.02989 56.0039C7.98886 56.0039 7.94782 56.0039 7.90678 55.9903L4.80153 55.1079C4.56898 55.0395 4.43218 54.8001 4.49374 54.5607C4.56214 54.3282 4.80153 54.1914 5.04092 54.253L8.14617 55.1353C8.37872 55.2037 8.51552 55.4431 8.45396 55.6825C8.39924 55.874 8.22141 56.0039 8.02989 56.0039Z" fill="#E9364B"/>
<path d="M7.18175 58.986C7.14071 58.986 7.09967 58.986 7.05863 58.9724L3.95339 58.09C3.72083 58.0216 3.58404 57.7822 3.6456 57.5428C3.71399 57.3103 3.95339 57.1667 4.19278 57.2351L7.29803 58.1174C7.53058 58.1858 7.66737 58.4252 7.60581 58.6646C7.5511 58.8561 7.37326 58.986 7.18175 58.986Z" fill="#E9364B"/>
<path d="M6.34044 61.9682C6.2994 61.9682 6.25836 61.9682 6.21733 61.9545L3.11208 61.0722C2.87952 61.0038 2.74273 60.7644 2.80429 60.525C2.87268 60.2924 3.11208 60.1556 3.35147 60.2172L6.45672 61.0995C6.68927 61.1679 6.82606 61.4073 6.76451 61.6467C6.70979 61.8382 6.53195 61.9682 6.34044 61.9682Z" fill="#E9364B"/>
<path d="M5.4923 64.9572C5.45126 64.9572 5.41022 64.9572 5.36918 64.9435L2.26393 64.0612C2.03138 63.9928 1.89459 63.7534 1.95614 63.514C2.02454 63.2814 2.26393 63.1446 2.50332 63.2062L5.60857 64.0885C5.84112 64.1569 5.97792 64.3963 5.91636 64.6357C5.86164 64.8272 5.68381 64.9572 5.4923 64.9572Z" fill="#E9364B"/>
<path d="M45.1424 45.0945C45.1424 45.0945 45.115 45.0945 45.1082 45.0945C44.9919 45.0877 44.8825 45.0261 44.8072 44.9372L36.2781 34.8554C36.1208 34.6707 36.1413 34.3903 36.3328 34.233L66.0242 9.11055C68.0966 7.35957 71.2087 7.61264 72.9665 9.69193L75.7024 12.9271C77.4534 14.9996 77.1935 18.1117 75.121 19.8695L45.4228 44.9919C45.3407 45.0603 45.245 45.0945 45.1355 45.0945H45.1424ZM37.2356 34.6228L45.1903 44.0275L74.5465 19.1855C76.2496 17.7492 76.4616 15.1911 75.0184 13.488L72.2825 10.2528C70.8462 8.54969 68.2881 8.33766 66.585 9.78085L37.2288 34.6228H37.2356Z" fill="#E9364B"/>
<path d="M33.0565 46.6403C32.9266 46.6403 32.8034 46.5856 32.7214 46.483C32.6256 46.3667 32.5914 46.2094 32.6393 46.0658L36.1207 34.6502C36.1891 34.4177 36.4353 34.2877 36.6747 34.3561C36.9073 34.4245 37.0372 34.6776 36.9688 34.9101L33.6858 45.6691L44.8346 44.2122C45.0671 44.178 45.2997 44.349 45.327 44.5952C45.3612 44.8346 45.1902 45.0603 44.944 45.0877L33.1112 46.6335C33.1112 46.6335 33.0702 46.6335 33.0565 46.6335V46.6403Z" fill="#E9364B"/>
<path d="M73.8009 20.5671C73.6778 20.5671 73.5479 20.5124 73.4658 20.4098L65.217 10.6563C65.0597 10.4717 65.0802 10.1912 65.2718 10.0339C65.4564 9.87661 65.7369 9.89713 65.8942 10.0886L74.1429 19.8421C74.3002 20.0268 74.2797 20.3072 74.0882 20.4646C74.0061 20.533 73.9035 20.5671 73.8009 20.5671Z" fill="#E9364B"/>
<path d="M71.4413 22.5575C71.3182 22.5575 71.1882 22.5028 71.1062 22.4002L62.8574 12.6467C62.7001 12.462 62.7206 12.1816 62.9121 12.0243C63.0968 11.867 63.3772 11.8875 63.5345 12.079L71.7833 21.8325C71.9406 22.0172 71.9201 22.2976 71.7286 22.4549C71.6465 22.5233 71.5439 22.5575 71.4413 22.5575Z" fill="#E9364B"/>
<path d="M50.2928 34.4723C50.2107 34.4723 50.1355 34.4723 50.0534 34.4655C49.301 34.4039 48.617 34.0551 48.1314 33.4806C47.6458 32.906 47.4132 32.1742 47.4748 31.4218C47.5364 30.6694 47.8852 29.9855 48.4597 29.4998L56.9 22.3591C57.4745 21.8735 58.2064 21.641 58.9587 21.7025C59.7111 21.7641 60.3951 22.1129 60.8807 22.6874C61.3663 23.262 61.5989 23.9938 61.5373 24.7462C61.4758 25.4986 61.1269 26.1826 60.5524 26.6682L52.1122 33.8089C51.5992 34.2398 50.9631 34.4723 50.2996 34.4723H50.2928ZM58.7262 22.578C58.2679 22.578 57.8302 22.7353 57.4814 23.0363L49.0411 30.177C48.6512 30.5121 48.405 30.9772 48.364 31.4971C48.3229 32.0169 48.4802 32.5162 48.8154 32.906C49.1505 33.2959 49.6156 33.5421 50.1355 33.5832C50.6553 33.6242 51.1546 33.4669 51.5513 33.1318L59.9915 25.991C60.3814 25.6559 60.6208 25.1908 60.6687 24.671C60.7097 24.1512 60.5524 23.6519 60.2173 23.262C59.8821 22.8721 59.417 22.6259 58.8972 22.5848C58.8425 22.5848 58.7878 22.5848 58.733 22.5848L58.7262 22.578Z" fill="#E9364B"/>
<path d="M32.2632 73.6231C32.2632 73.6231 32.2221 73.6231 32.2016 73.6231C32.0853 73.6094 31.9554 73.541 31.887 73.4453L17.5577 55.0327C15.9572 52.9807 16.3334 50.0054 18.3853 48.4118L19.2061 47.7688C19.9243 47.208 20.7861 46.8728 21.6958 46.7976C23.3031 46.6608 24.842 47.3379 25.827 48.5965L40.1631 67.0159C40.2383 67.1117 40.2657 67.2416 40.252 67.3647C40.2383 67.481 40.1768 67.6041 40.081 67.6725L32.5504 73.541C32.4752 73.6026 32.3658 73.63 32.2632 73.63V73.6231ZM22.1061 47.6594C21.9967 47.6594 21.8873 47.6594 21.7778 47.6731C21.0391 47.7346 20.3415 48.0082 19.7533 48.4597L18.9325 49.1026C17.2636 50.4021 16.9626 52.8166 18.2554 54.4855L32.3316 72.5766L39.2124 67.2211L25.1362 49.13C24.4043 48.1929 23.2894 47.6526 22.1061 47.6526V47.6594Z" fill="#E9364B"/>
<path d="M32.8103 70.2169C32.6804 70.2169 32.5504 70.1554 32.4615 70.046L22.2771 56.9547C22.1266 56.7631 22.1608 56.4827 22.3524 56.3322C22.5439 56.1818 22.8243 56.216 22.9748 56.4075L33.1592 69.4988C33.3096 69.6903 33.2754 69.9707 33.0839 70.1212C33.0019 70.1827 32.9061 70.2169 32.8103 70.2169Z" fill="#E9364B"/>
<path d="M34.5955 68.8285C34.4655 68.8285 34.3356 68.7669 34.2467 68.6575L24.0623 55.5662C23.9118 55.3747 23.946 55.0942 24.1375 54.9437C24.329 54.7933 24.6095 54.8275 24.7599 55.019L34.9443 68.1103C35.0948 68.3018 35.0606 68.5822 34.8691 68.7327C34.787 68.7943 34.6913 68.8285 34.5955 68.8285Z" fill="#E9364B"/>
<path d="M36.3807 67.44C36.2507 67.44 36.1207 67.3785 36.0318 67.269L25.8474 54.1777C25.697 53.9862 25.7312 53.7058 25.9227 53.5553C26.1142 53.4048 26.3946 53.439 26.5451 53.6306L36.7295 66.7219C36.88 66.9134 36.8458 67.1938 36.6542 67.3443C36.5722 67.4058 36.4764 67.44 36.3807 67.44Z" fill="#E9364B"/>
<path d="M42.3312 74.9569C42.0713 74.9569 41.8114 74.9432 41.5447 74.909C39.8894 74.7038 38.4121 73.8625 37.3861 72.5493L35.9224 70.6684C35.7719 70.4769 35.8061 70.1964 35.9976 70.046C36.1891 69.8955 36.4696 69.9297 36.62 70.1212L38.0837 72.0021C38.9661 73.1307 40.2314 73.8557 41.6541 74.0335C43.0768 74.2114 44.4789 73.8215 45.6143 72.946C46.7429 72.0637 47.4679 70.7983 47.6389 69.3757C47.8167 67.953 47.4269 66.5508 46.5514 65.4154L37.5844 53.8904C37.434 53.6989 37.4682 53.4185 37.6597 53.268C37.8512 53.1176 38.1316 53.1518 38.2821 53.3433L47.249 64.8683C48.275 66.1883 48.7264 67.823 48.5212 69.4783C48.316 71.1335 47.4747 72.6109 46.1547 73.6368C45.0466 74.4986 43.7129 74.9569 42.3312 74.9569Z" fill="#E9364B"/>
</g>
<defs>
<clipPath id="clip0_17_252">
<rect width="76.8583" height="74.9569" fill="white"/>
</clipPath>
</defs>
</svg>
