<svg width="545" height="558" viewBox="0 0 545 558" fill="none" xmlns="http://www.w3.org/2000/svg">
<g clip-path="url(#clip0_134_5)">
<path d="M411.602 416.427C419.579 435.062 440.174 445.605 458.829 450.188C468.093 452.465 477.28 452.784 486.53 450.296C495.468 447.892 503.766 443.573 511.702 438.879C513.305 437.93 511.787 435.475 510.193 436.421C502.93 440.723 495.391 444.69 487.261 447.104C478.175 449.797 469.257 449.825 460.049 447.704C450.309 445.454 440.732 441.859 432.316 436.406C424.081 431.066 417.983 424.131 412.764 415.907C412.386 415.313 411.3 415.733 411.598 416.433L411.602 416.427Z" fill="#E9364B"/>
<path d="M510.596 437.7C513.948 441.404 516.616 445.524 518.768 450.025C519.208 450.957 520.644 450.787 521.072 449.96C526.25 439.894 531.137 429.672 536.154 419.527C536.53 418.766 536.164 417.624 535.227 417.489C523.919 415.886 512.702 413.792 501.59 411.167C500.646 410.943 499.785 411.718 499.799 412.657C499.849 417.706 500.85 422.499 502.841 427.14C503.582 428.867 506.407 428.033 505.66 426.287C503.787 421.881 502.815 417.339 502.73 412.544L500.939 414.034C512.072 416.576 523.299 418.652 534.604 420.231C534.293 419.555 533.985 418.874 533.673 418.199C528.68 428.356 523.55 438.464 518.725 448.703C519.497 448.678 520.26 448.656 521.032 448.632C518.63 444.029 515.558 440.005 511.833 436.399C510.995 435.582 509.83 436.852 510.596 437.7Z" fill="#E9364B"/>
<path d="M412.328 417.042C418.324 419.025 424.288 421.138 430.117 423.563C430.938 423.901 431.815 423.432 431.822 422.497C431.879 416.941 431.751 411.38 431.684 405.821L429.331 406.533C447.037 429.15 477.127 437.946 504.094 427.78C506.015 427.056 505.095 423.982 503.165 424.708C477.727 434.356 448.463 426.619 431.491 405.201C430.74 404.252 429.115 404.539 429.139 405.913C429.239 411.467 429.275 417.026 429.493 422.58C429.967 422.192 430.438 421.795 430.912 421.407C424.898 419.196 418.853 417.188 412.657 415.552C411.698 415.297 411.405 416.736 412.322 417.039L412.328 417.042Z" fill="#E9364B"/>
<path d="M449.602 423.732C445.27 423.932 440.945 425.551 436.605 426.028C431.916 426.545 427.2 426.571 422.498 426.103C420.655 425.922 419.986 428.763 421.851 428.948C426.808 429.436 431.761 429.451 436.699 428.746C441.018 428.133 446.297 427.376 449.923 424.812C450.38 424.485 450.214 423.7 449.596 423.729L449.602 423.732Z" fill="#E9364B"/>
<path d="M443.072 418.1C441.122 417.9 439.184 417.88 437.225 417.989C435.321 418.096 433.104 418.028 431.323 418.74C430.468 419.08 430.239 420.648 431.392 420.773C433.324 420.978 435.376 420.433 437.302 420.197C439.247 419.955 441.186 419.695 443.109 419.332C443.717 419.22 443.688 418.163 443.063 418.103L443.072 418.1Z" fill="#E9364B"/>
<path d="M460.544 427.799C455.925 428.8 451.393 430.95 446.872 432.394C442.258 433.867 437.559 434.856 432.889 436.095C431.521 436.458 431.854 438.803 433.301 438.584C438.157 437.859 442.974 436.417 447.61 434.831C452.024 433.322 457.209 431.545 460.942 428.693C461.384 428.351 461.109 427.679 460.541 427.806L460.544 427.799Z" fill="#E9364B"/>
<path d="M470.635 430.097C463.19 436.344 454.907 439.92 445.845 443.212C444.155 443.825 444.971 446.523 446.655 445.891C455.512 442.56 465.697 438.867 471.468 430.894C471.898 430.295 471.207 429.613 470.632 430.103L470.635 430.097Z" fill="#E9364B"/>
<path d="M481.424 430.491C478.126 434.006 474.361 436.903 470.373 439.587C466.816 441.978 462.591 445.631 458.277 446.325C456.274 446.645 456.708 449.459 458.742 449.093C463.397 448.261 467.434 444.711 471.106 441.944C475.239 438.828 479.093 435.4 482.362 431.384C482.883 430.748 482 429.884 481.43 430.494L481.424 430.491Z" fill="#E9364B"/>
<path d="M490.51 429.903C487.312 433.448 484.03 436.846 480.398 439.948C476.987 442.855 473.069 445.029 469.63 447.842C470.241 447.826 470.849 447.815 471.461 447.798C471.434 447.776 471.413 447.756 471.389 447.728C471.401 448.275 471.417 448.815 471.429 449.362C471.443 449.337 471.468 449.319 471.477 449.301C471.784 448.933 471.856 448.448 471.612 448.027C471.6 448.006 471.588 447.984 471.577 447.962C471.244 447.4 470.534 447.294 469.989 447.581C469.958 447.595 469.923 447.616 469.892 447.631C469.056 448.067 469.081 449.496 469.959 449.873C471.526 450.555 472.54 449.494 473.839 448.602C476.151 447.016 478.336 445.244 480.431 443.377C484.646 439.625 488.414 435.337 491.699 430.751C492.187 430.073 491.061 429.282 490.513 429.897L490.51 429.903Z" fill="#E9364B"/>
<path d="M497.246 428.909C496.322 432.373 493.909 435.682 491.959 438.651C489.758 442.002 487.27 445.114 484.754 448.235C483.703 449.541 485.571 451.355 486.663 450.047C489.492 446.648 491.96 442.931 494.156 439.092C495.755 436.31 498.655 432.355 498.283 429.003C498.219 428.421 497.408 428.315 497.246 428.909Z" fill="#E9364B"/>
<path d="M507.675 415.161C505.927 419.49 505.418 424.139 503.946 428.553C502.188 433.824 499.069 438.304 496.821 443.32C496.091 444.947 498.218 446 499.211 444.599C502.105 440.539 504.411 435.633 505.966 430.903C507.595 425.946 507.555 420.659 509.107 415.685C509.364 414.868 508.003 414.343 507.672 415.151L507.675 415.161Z" fill="#E9364B"/>
<path d="M516.352 417.35C515.259 421.029 514.383 424.754 513.072 428.37C511.785 431.929 509.605 435.3 508.651 438.936C508.375 439.993 509.839 440.808 510.567 439.961C512.981 437.147 514.213 433.034 515.329 429.532C516.568 425.626 517.508 421.576 517.642 417.47C517.666 416.693 516.556 416.677 516.352 417.35Z" fill="#E9364B"/>
<path d="M525.692 418.479C523.51 422.349 522.371 426.903 520.388 430.926C518.556 434.655 515.79 438.096 514.358 441.968C513.858 443.312 515.762 443.964 516.62 443.179C519.851 440.215 521.827 435.092 523.399 431.075C524.901 427.248 526.665 422.841 526.593 418.695C526.588 418.208 525.919 418.084 525.689 418.485L525.692 418.479Z" fill="#E9364B"/>
</g>
<path d="M176.431 118.529C163.052 101.153 148.781 84.4903 133.677 68.6081C133.496 68.4381 133.257 68.3435 133.009 68.3435C132.762 68.3435 132.523 68.4381 132.342 68.6081C117.231 84.4898 102.954 101.153 89.5687 118.529C61.1157 155.696 46.6825 184.662 46.6825 204.483C46.5137 215.986 48.6213 227.408 52.883 238.085C57.1446 248.762 63.4751 258.481 71.5063 266.675C79.5375 274.87 89.1091 281.378 99.6644 285.819C110.22 290.261 121.548 292.549 132.991 292.549C144.433 292.549 155.762 290.261 166.317 285.819C176.872 281.378 186.444 274.87 194.475 266.675C202.506 258.481 208.837 248.762 213.098 238.085C217.36 227.408 219.468 215.986 219.299 204.483C219.318 184.586 204.847 155.677 176.431 118.529Z" fill="#E9364B" fill-opacity="0.1"/>
<path d="M449.655 249.331C439.595 236.236 428.865 223.677 417.509 211.708C417.373 211.579 417.193 211.508 417.007 211.508C416.821 211.508 416.642 211.579 416.505 211.708C405.144 223.677 394.409 236.235 384.345 249.331C362.952 277.342 352.1 299.173 352.1 314.112C351.973 322.781 353.557 331.39 356.762 339.437C359.966 347.484 364.726 354.808 370.764 360.984C376.803 367.16 383.999 372.065 391.936 375.412C399.872 378.76 408.389 380.484 416.993 380.484C425.596 380.484 434.114 378.76 442.05 375.412C449.987 372.065 457.183 367.16 463.222 360.984C469.26 354.808 474.02 347.484 477.224 339.437C480.428 331.39 482.013 322.781 481.886 314.112C481.9 299.116 471.02 277.328 449.655 249.331Z" fill="#E9364B" fill-opacity="0.1"/>
<path d="M243.491 432.085C235.947 422.251 227.899 412.82 219.382 403.831C219.279 403.735 219.145 403.681 219.005 403.681C218.866 403.681 218.731 403.735 218.629 403.831C210.108 412.82 202.057 422.251 194.509 432.085C178.464 453.121 170.325 469.515 170.325 480.734C170.23 487.244 171.418 493.709 173.821 499.752C176.224 505.795 179.794 511.296 184.323 515.934C188.852 520.572 194.249 524.255 200.202 526.769C206.154 529.283 212.542 530.577 218.995 530.577C225.447 530.577 231.835 529.283 237.788 526.769C243.74 524.255 249.137 520.572 253.666 515.934C258.195 511.296 261.765 505.795 264.168 499.752C266.571 493.709 267.76 487.244 267.665 480.734C267.675 469.473 259.515 453.11 243.491 432.085Z" fill="#E9364B" fill-opacity="0.1"/>
<defs>
<clipPath id="clip0_134_5">
<rect width="68.0343" height="112.549" fill="white" transform="translate(537.771 418.773) rotate(118.167)"/>
</clipPath>
</defs>
</svg>
