<?xml version="1.0" encoding="UTF-8"?><svg id="Calque_1" xmlns="http://www.w3.org/2000/svg" viewBox="0 0 1517.94 310.41"><defs><style>.cls-1{fill:#fff;stroke-width:0px;}</style></defs><path class="cls-1" d="m363.23,74.53v41.7h-30.96V1.65h37.54c31.14,0,46.71,11.28,46.71,33.86,0,13.27-6.48,23.54-19.44,30.8l33.39,49.92h-35.11l-24.3-41.7h-7.84Zm0-23.28h5.8c10.82,0,16.22-4.78,16.22-14.35,0-7.89-5.3-11.83-15.91-11.83h-6.11v26.18Z"/><path class="cls-1" d="m508.94,116.23h-68.03V1.65h68.03v24.84h-37.07v18.03h34.33v24.84h-34.33v21.63h37.07v25.24Z"/><path class="cls-1" d="m575,49.14h49.46v61.76c-13.43,4.6-28.19,6.9-44.28,6.9-17.66,0-31.31-5.12-40.95-15.36-9.64-10.24-14.46-24.84-14.46-43.81s5.28-32.89,15.83-43.19c10.55-10.29,25.34-15.44,44.36-15.44,7.21,0,14.01.68,20.42,2.04,6.4,1.36,11.98,3.08,16.73,5.17l-9.8,24.3c-8.26-4.08-17.32-6.11-27.2-6.11-9.04,0-16.03,2.94-20.96,8.82-4.94,5.88-7.41,14.28-7.41,25.2s2.24,18.88,6.7,24.49c4.47,5.62,10.91,8.43,19.32,8.43,4.6,0,8.83-.45,12.7-1.33v-17.95h-20.46v-23.9Z"/><path class="cls-1" d="m647.82,116.23V1.65h30.96v89.58h44.12v25h-75.08Z"/><path class="cls-1" d="m809.27,116.23h-68.03V1.65h68.03v24.84h-37.07v18.03h34.33v24.84h-34.33v21.63h37.07v25.24Z"/><path class="cls-1" d="m904.26,81.43c0,7.1-1.8,13.42-5.41,18.93-3.61,5.51-8.81,9.79-15.6,12.85-6.79,3.06-14.76,4.58-23.9,4.58-7.63,0-14.03-.53-19.2-1.6-5.17-1.07-10.56-2.94-16.14-5.6v-27.59c5.9,3.03,12.04,5.4,18.42,7.09,6.37,1.7,12.22,2.55,17.56,2.55,4.59,0,7.97-.8,10.11-2.39,2.14-1.59,3.21-3.64,3.21-6.15,0-1.57-.43-2.94-1.29-4.11-.86-1.17-2.25-2.36-4.16-3.57-1.91-1.2-6.99-3.66-15.24-7.37-7.47-3.39-13.08-6.69-16.81-9.87-3.74-3.19-6.5-6.85-8.31-10.97-1.8-4.13-2.7-9.01-2.7-14.65,0-10.56,3.84-18.78,11.52-24.69,7.68-5.9,18.24-8.86,31.66-8.86,11.86,0,23.96,2.74,36.29,8.23l-9.48,23.9c-10.71-4.91-19.96-7.37-27.75-7.37-4.02,0-6.95.7-8.78,2.12-1.83,1.41-2.74,3.16-2.74,5.25,0,2.25,1.16,4.26,3.49,6.04,2.32,1.78,8.64,5.01,18.93,9.72,9.88,4.44,16.73,9.21,20.57,14.3,3.84,5.09,5.76,11.51,5.76,19.24Z"/><path class="cls-1" d="m400.31,308.85h-68.03v-114.58h68.03v24.84h-37.07v18.03h34.33v24.84h-34.33v21.63h37.07v25.24Z"/><path class="cls-1" d="m420.37,308.85v-114.58h30.96v89.58h44.12v25h-75.08Z"/><path class="cls-1" d="m581.82,308.85h-68.03v-114.58h68.03v24.84h-37.07v18.03h34.33v24.84h-34.33v21.63h37.07v25.24Z"/><path class="cls-1" d="m651.81,308.85l-23.43-82.53h-.7c1.1,14.06,1.65,24.97,1.65,32.76v49.77h-27.43v-114.58h41.22l23.9,81.35h.63l23.43-81.35h41.3v114.58h-28.45v-50.24c0-2.61.04-5.51.12-8.7.08-3.19.43-11,1.06-23.43h-.7l-23.12,82.37h-29.47Z"/><path class="cls-1" d="m825.1,308.85h-68.03v-114.58h68.03v24.84h-37.07v18.03h34.33v24.84h-34.33v21.63h37.07v25.24Z"/><path class="cls-1" d="m954.26,308.85h-40.6l-41.85-80.73h-.7c.99,12.7,1.49,22.39,1.49,29.08v51.65h-27.43v-114.58h40.44l41.7,79.63h.47c-.73-11.55-1.1-20.82-1.1-27.82v-51.81h27.59v114.58Z"/><path class="cls-1" d="m1029.58,308.85h-30.96v-89.27h-27.98v-25.31h86.84v25.31h-27.9v89.27Z"/><path class="cls-1" d="m1144.17,308.85l-5.64-21.47h-37.23l-5.8,21.47h-34.01l37.38-115.06h41.3l37.86,115.06h-33.86Zm-12.07-46.87l-4.94-18.81c-1.15-4.18-2.55-9.59-4.19-16.22-1.65-6.63-2.73-11.39-3.25-14.26-.47,2.66-1.4,7.05-2.78,13.17-1.39,6.11-4.46,18.16-9.21,36.13h24.38Z"/><path class="cls-1" d="m1190.41,308.85v-114.58h31.11v114.58h-31.11Z"/><path class="cls-1" d="m1277.25,267.15v41.7h-30.96v-114.58h37.54c31.14,0,46.71,11.28,46.71,33.86,0,13.27-6.48,23.54-19.44,30.8l33.39,49.92h-35.11l-24.3-41.7h-7.84Zm0-23.28h5.8c10.82,0,16.22-4.78,16.22-14.35,0-7.89-5.3-11.83-15.91-11.83h-6.11v26.18Z"/><path class="cls-1" d="m1422.95,308.85h-68.03v-114.58h68.03v24.84h-37.07v18.03h34.33v24.84h-34.33v21.63h37.07v25.24Z"/><path class="cls-1" d="m1517.94,274.05c0,7.1-1.8,13.42-5.41,18.93-3.61,5.51-8.81,9.79-15.6,12.85-6.79,3.06-14.76,4.58-23.9,4.58-7.63,0-14.03-.53-19.2-1.6-5.17-1.07-10.56-2.94-16.14-5.6v-27.59c5.9,3.03,12.04,5.4,18.42,7.09,6.37,1.7,12.22,2.55,17.56,2.55,4.59,0,7.97-.8,10.11-2.39,2.14-1.59,3.21-3.64,3.21-6.15,0-1.57-.43-2.94-1.29-4.11-.86-1.17-2.25-2.36-4.16-3.57-1.91-1.2-6.99-3.66-15.24-7.37-7.47-3.39-13.08-6.69-16.81-9.87-3.74-3.19-6.5-6.85-8.31-10.97-1.8-4.13-2.7-9.01-2.7-14.65,0-10.56,3.84-18.78,11.52-24.69,7.68-5.9,18.24-8.86,31.66-8.86,11.86,0,23.96,2.74,36.29,8.23l-9.48,23.9c-10.71-4.91-19.96-7.37-27.75-7.37-4.02,0-6.95.7-8.78,2.12-1.83,1.41-2.74,3.16-2.74,5.25,0,2.25,1.16,4.26,3.49,6.04,2.32,1.78,8.64,5.01,18.93,9.72,9.88,4.44,16.73,9.21,20.57,14.3,3.84,5.09,5.76,11.51,5.76,19.24Z"/><path class="cls-1" d="m256.22,206.57c0-31.63-2.81-60.37-8.43-85.63C231.48,47.68,191.55,3.76,128.11,3.76S25.64,46.69,9,118.47C3,144.32,0,173.9,0,206.57c0,14.36.78,28.41,2.26,42.02.2-.05.39-.11.59-.17,0,.14-.03.28-.03.43,0,15.99,50.96,19,63.05,11.76,15.44,19.59,34.89,35.12,57.92,46.12l4.31,2.06,4.32-2.06c22.93-10.95,42.31-26.41,57.73-45.88,11.49,7.64,60.23,6.03,63.4-8.81.23-1.05.38-2.11.38-3.18h0c1.5-13.69,2.29-27.82,2.29-42.28Zm-125.57,96.43l-2.54,1.21-2.53-1.21c-22.78-10.88-41.99-26.3-57.15-45.78.03-.83-.27-1.72-1.01-2.69-12.04-15.72-21.46-34.08-27.97-54.57-11.04-34.72-9.97-63.4-9.92-64.6l.19-4.58,4.98-.51c26.61-2.73,49.47-12.65,63.97-20.49,15.52-8.4,25.22-16.42,25.64-16.77l3.81-3.22,3.83,3.24c1.02.85,10.42,8.53,25.61,16.75,14.49,7.84,37.34,17.77,63.97,20.49l4.98.51.19,4.58c.05,1.2,1.13,29.88-9.92,64.6-6.52,20.49-15.93,38.85-27.98,54.57-.75.98-1.06,1.89-1.06,2.75-15.15,19.46-34.34,34.85-57.09,45.72Z"/></svg>