<svg width="84" height="90" viewBox="0 0 84 90" fill="none" xmlns="http://www.w3.org/2000/svg">
<path d="M62.0376 77.4252C59.7361 79.4439 56.8455 80.9756 53.7193 81.824C49.2027 83.0415 44.5998 82.9943 41.1044 81.6983C36.525 80.0016 32.6919 76.3334 30.8538 71.8797C30.0919 70.0495 29.817 68.1172 29.5421 66.2478C29.4557 65.6273 29.3614 65.0067 29.2593 64.3941C28.7959 61.7234 28.2146 59.0213 27.649 56.4057L27.5077 55.738C27.1463 54.0649 26.6122 52.3054 25.8189 50.2003C25.3162 48.8729 24.7663 47.5297 24.2243 46.2258C23.9101 45.4717 23.6038 44.7177 23.2975 43.9636C22.6612 42.3769 22.0014 40.7981 21.3338 39.2114C19.6921 35.2918 17.9954 31.2387 16.7072 27.1307C15.207 22.3314 15.4269 18.3804 17.3828 15.0421C20.022 10.5412 25.701 8.08266 30.139 7.27362C35.9516 6.22107 42.1334 8.25547 46.2729 12.5913C49.9647 16.4481 50.7816 21.5145 51.5828 26.4159C51.7948 27.7119 52.0148 29.063 52.2818 30.3512C52.9966 33.7837 54.5048 37.1456 57.034 40.9395C57.7724 42.0549 58.5657 43.1624 59.3276 44.2385C60.1524 45.3932 61.0007 46.595 61.7941 47.7968L62.336 48.6137C64.8025 52.3212 67.3474 56.1543 67.9994 60.7494C68.7849 66.3342 67.1903 71.8404 63.6164 75.8543C63.1294 76.4041 62.6031 76.9225 62.0376 77.4174V77.4252ZM26.7536 49.8469C27.5626 51.9991 28.1125 53.8057 28.4895 55.5259L28.6309 56.1936C29.1965 58.8171 29.7856 61.527 30.249 64.2212C30.359 64.8496 30.4454 65.478 30.5396 66.1064C30.8146 67.9916 31.0738 69.7825 31.7807 71.4948C33.5166 75.6815 37.1298 79.1455 41.4422 80.7478C44.749 81.9732 49.1242 82.0125 53.4444 80.85C57.1518 79.8524 60.4823 77.8494 62.8466 75.2023C66.2242 71.4163 67.7323 66.2085 66.9861 60.9144C66.3734 56.5471 63.8834 52.816 61.4799 49.1949L60.9379 48.3702C60.1524 47.1762 59.3041 45.9902 58.4872 44.8355C57.7174 43.7594 56.9241 42.6361 56.1778 41.5129C53.5779 37.609 52.0226 34.1372 51.2764 30.5711C51.0015 29.2593 50.7816 27.9083 50.5695 26.5965C49.7997 21.8522 48.9985 16.9429 45.5267 13.3061C41.615 9.21376 35.7867 7.28932 30.304 8.28689C26.0859 9.04881 20.7054 11.366 18.2468 15.5683C16.4402 18.6474 16.2517 22.3314 17.6655 26.84C18.938 30.901 20.6268 34.9305 22.2528 38.8344C22.9204 40.4211 23.5802 42.0077 24.2165 43.6023C24.515 44.3563 24.8292 45.1026 25.1355 45.8488C25.6775 47.1527 26.2352 48.5037 26.7379 49.8469H26.7536Z" fill="#E9364B"/>
<path d="M55.9108 69.8375C55.3767 70.2381 54.7954 70.5994 54.1906 70.9136L53.7271 70.0103C54.2848 69.7196 54.819 69.3897 55.306 69.0284L55.9108 69.8453V69.8375ZM57.4346 68.4864L56.6963 67.7874C56.7827 67.6931 56.8691 67.5988 56.9555 67.5046C57.2775 67.1433 57.5682 66.7427 57.8352 66.3342L58.6914 66.884C58.4008 67.3396 58.0709 67.7795 57.7174 68.1801C57.6231 68.2822 57.5289 68.3922 57.4346 68.4943V68.4864ZM52.329 71.6991C51.9205 71.8405 51.4964 71.9583 51.0643 72.0604C50.8366 72.1154 50.6088 72.1625 50.381 72.2096L50.1846 71.2121C50.4045 71.1728 50.6166 71.1257 50.8287 71.0707C51.2293 70.9764 51.622 70.8586 51.9991 70.7329L52.3211 71.6912L52.329 71.6991ZM59.634 65.0696L58.6993 64.6847C58.9349 64.1191 59.1234 63.5222 59.2648 62.9095L60.2545 63.1373C60.1053 63.8049 59.8932 64.4569 59.6418 65.0696H59.634ZM48.3858 72.4767C47.7103 72.5238 47.0348 72.5317 46.375 72.5003L46.43 71.487C47.0427 71.5184 47.6789 71.5106 48.3151 71.4634L48.3937 72.4767H48.3858ZM60.5373 61.1343L59.524 61.0636C59.5633 60.4509 59.5633 59.8147 59.5083 59.1941L60.5216 59.1156C60.5766 59.7911 60.5766 60.4745 60.5373 61.1343ZM44.3642 72.2489C43.6808 72.1075 43.0288 71.9111 42.4162 71.6676L42.5968 71.2278L42.6911 70.6936L42.8639 70.7565C43.3509 70.945 43.94 71.1257 44.5684 71.2513L44.3642 72.2489ZM60.2152 57.1126L59.2255 57.3483C59.092 56.767 58.8956 56.17 58.6521 55.5652L59.5947 55.1882C59.8539 55.8401 60.0581 56.4842 60.2074 57.1126H60.2152ZM40.6017 70.7565C40.0283 70.4109 39.4706 70.0181 38.9522 69.5861L39.5963 68.8006C40.0754 69.2012 40.5938 69.5625 41.1201 69.8846L40.6017 70.7565ZM58.7464 53.3737L57.8509 53.8529C57.576 53.3423 57.2618 52.8003 56.8848 52.2033L57.741 51.6614C58.1259 52.2819 58.4558 52.8396 58.7385 53.3737H58.7464ZM37.4912 68.1958L37.3341 68.023C36.9413 67.5753 36.5722 67.0961 36.2422 66.6013L37.0906 66.0357C37.3969 66.4913 37.7347 66.939 38.1038 67.3553L38.2374 67.5124L37.4912 68.1958ZM56.6727 50.0197L55.8322 50.5852L54.7404 48.975L55.5809 48.4016L56.6727 50.0197ZM36.1873 64.4098L35.2604 64.8339L35.174 64.6454C34.9462 64.127 34.7577 63.5614 34.5849 62.9095L35.5667 62.6581C35.716 63.2551 35.8966 63.7735 36.1009 64.2448L36.1794 64.4098H36.1873ZM54.4498 46.7992L53.625 47.3962L53.2873 46.9249C53.0202 46.5557 52.7531 46.1865 52.4939 45.8173L53.3187 45.2282C53.5857 45.5974 53.845 45.9666 54.112 46.3358L54.4576 46.8149L54.4498 46.7992ZM35.1897 60.7808L34.1921 60.9615L34.1607 60.773C34.0822 60.3331 34.0036 59.9011 33.9172 59.4612L33.8308 59.0606L34.8284 58.8485L34.9148 59.257C35.009 59.7047 35.0876 60.1524 35.1661 60.5923L35.1976 60.7808H35.1897ZM52.2112 43.6258L51.3628 44.1914C50.9858 43.6258 50.6323 43.0603 50.3181 42.5105L51.1979 41.9999C51.5042 42.5262 51.842 43.076 52.2112 43.6258ZM34.3885 56.9398L33.3988 57.1676C33.2496 56.5392 33.1003 55.9108 32.9432 55.2824L33.9251 55.0389C34.0822 55.6752 34.2314 56.3036 34.3807 56.9398H34.3885ZM50.3024 40.319L49.3913 40.7588C49.1006 40.1461 48.8336 39.5256 48.6136 38.9208L49.5641 38.5752C49.7761 39.1564 50.0275 39.7377 50.3024 40.3268V40.319ZM33.4695 53.1459L32.4876 53.3973C32.3384 52.816 32.1577 52.219 31.9378 51.5671L32.8961 51.2372C33.1239 51.9049 33.3124 52.5332 33.4695 53.1381V53.1459ZM48.9907 36.6665L48.5194 36.8864L48.0245 37.0042L48.4958 36.7921L48.001 36.91C47.8596 36.3051 47.726 35.7003 47.6082 35.0876L48.6058 34.8913C48.7236 35.4882 48.8493 36.0852 48.9907 36.6743V36.6665ZM32.1891 49.3363L31.2701 49.7762L31.2309 49.6819C31.0031 49.1164 30.7517 48.5194 30.4925 47.9303L31.4272 47.5297C31.6864 48.1345 31.9456 48.7315 32.1891 49.3363ZM48.2287 32.9668L47.2312 33.1632C47.1055 32.5348 46.972 31.9064 46.8149 31.278L47.7967 31.0345C47.9538 31.6708 48.0874 32.3149 48.2209 32.959L48.2287 32.9668ZM30.6496 45.7388L29.7227 46.1473L29.4007 45.401C29.2514 45.0476 29.1022 44.702 28.953 44.3563L29.8798 43.9479C30.0291 44.3014 30.1862 44.647 30.3354 45.0004L30.6575 45.7388H30.6496ZM47.2547 29.1258L46.2964 29.4479C46.0844 28.8116 45.8487 28.2461 45.5817 27.7041L46.4928 27.2563C46.7756 27.8298 47.027 28.4424 47.2547 29.1179V29.1258ZM29.0865 42.1648L28.1596 42.5733L27.3741 40.7902L28.301 40.3818L29.0865 42.1648ZM45.4481 25.5204L44.6234 26.1174C44.4349 25.8503 44.2228 25.5911 44.0028 25.3398C43.9164 25.2376 43.8222 25.1355 43.7279 25.0334C43.6258 24.9235 43.5158 24.8135 43.4137 24.7114L44.1207 23.9809C44.2385 24.0987 44.3484 24.2087 44.4663 24.3265C44.5684 24.4365 44.6705 24.5464 44.7726 24.6642C45.0083 24.9392 45.236 25.2219 45.456 25.5204H45.4481ZM27.5155 38.6066L26.5808 39.0072C26.3216 38.4102 26.0702 37.8054 25.8267 37.2006L26.7693 36.8157C27.0128 37.4127 27.2642 38.0096 27.5155 38.6066ZM41.9763 23.5017C41.4657 23.1326 40.9316 22.8026 40.3818 22.5199L40.8452 21.6166C41.4422 21.9229 42.0234 22.2842 42.5654 22.677L41.9684 23.5017H41.9763ZM26.0624 35.0091L25.1119 35.3704C24.9077 34.8284 24.7113 34.2786 24.5228 33.7366L24.4521 33.5167L25.4183 33.1946L25.489 33.4067C25.6775 33.9408 25.866 34.4828 26.0702 35.0169L26.0624 35.0091ZM38.6615 21.7815C38.0646 21.5773 37.4597 21.4202 36.8549 21.3181L37.0277 20.3205C37.6875 20.4383 38.3473 20.6033 38.9914 20.8232L38.6615 21.7815ZM24.9234 31.3723L23.9258 31.5687C23.7845 30.8696 23.7138 30.1862 23.6981 29.5421L24.7113 29.5264C24.7192 30.1077 24.7899 30.7282 24.9234 31.3723ZM34.9933 21.1531C34.4671 21.1531 33.9408 21.1846 33.4302 21.2631C33.336 21.2788 33.2417 21.2945 33.1474 21.3102L32.9746 20.3127C33.0767 20.297 33.1789 20.2812 33.2888 20.2655C33.8465 20.1791 34.4278 20.1399 35.0012 20.1477V21.161L34.9933 21.1531ZM24.8841 27.7041L23.8944 27.4841C24.0437 26.8008 24.2793 26.141 24.6014 25.5283L25.5047 25.9996C25.2298 26.5337 25.0177 27.1071 24.892 27.6962L24.8841 27.7041ZM31.3173 21.7422C30.7124 21.9308 30.1233 22.1586 29.5656 22.4178L29.1336 21.4987C29.7306 21.216 30.3668 20.9725 31.0188 20.7682L31.3173 21.7344V21.7422ZM27.9475 23.3446C27.4291 23.706 26.9578 24.0987 26.5494 24.5386L25.811 23.8473C26.2666 23.3603 26.7929 22.9126 27.3741 22.512L27.9475 23.3446Z" fill="#E9364B"/>
<path d="M29.2829 62.933L23.1247 62.6267C21.2002 62.5324 19.6371 61.0793 19.4172 59.1705C19.1973 57.2539 18.7731 55.2195 18.1761 53.138C17.3278 50.2081 16.0867 47.6239 15.1991 45.9744C14.2723 44.262 14.72 42.1491 16.2674 40.9787L20.9253 37.4676L21.538 38.2766L16.8801 41.7878C15.7254 42.6596 15.4034 44.2228 16.0946 45.4952C17.0136 47.1919 18.2861 49.8468 19.158 52.8631C19.7707 54.9996 20.2027 57.0811 20.4305 59.0606C20.5954 60.4744 21.7501 61.5505 23.1797 61.6212L29.3379 61.9276L29.2907 62.9409L29.2829 62.933Z" fill="#E9364B"/>
<path d="M63.0351 50.0668L62.3282 49.3441L67.1511 44.6234C68.1565 43.6101 68.29 42.0391 67.4574 40.8845C66.2949 39.2742 65.2109 37.444 64.2291 35.4411C62.8388 32.6212 61.9983 29.8013 61.5348 27.9318C61.1892 26.5258 59.8932 25.5989 58.4558 25.7246L51.3942 26.8557L51.2372 25.8503L58.3301 24.7113C60.3016 24.5385 62.0454 25.7953 62.5167 27.6805C62.9723 29.5028 63.7892 32.252 65.1402 34.9855C66.0985 36.9335 67.1589 38.7165 68.2822 40.2796C69.4054 41.8428 69.2247 43.9636 67.8659 45.3303L63.043 50.0589L63.0351 50.0668Z" fill="#E9364B"/>
</svg>
