<svg width="74" height="76" viewBox="0 0 74 76" fill="none" xmlns="http://www.w3.org/2000/svg">
<g clip-path="url(#clip0_17_253)">
<path d="M36.6429 75.7046C21.6745 75.7046 9.49976 63.5298 9.49976 48.5614V39.3804C9.49976 24.412 21.6745 12.2372 36.6429 12.2372C51.6113 12.2372 63.786 24.412 63.786 39.3804V48.5614C63.786 63.5298 51.6113 75.7046 36.6429 75.7046ZM36.6429 13.106C22.1557 13.106 10.3685 24.8932 10.3685 39.3804V48.5614C10.3685 63.0486 22.1557 74.8358 36.6429 74.8358C51.1301 74.8358 62.9173 63.0486 62.9173 48.5614V39.3804C62.9173 24.8932 51.1301 13.106 36.6429 13.106Z" fill="#E9364B"/>
<path d="M56.7925 33.3305C37.9117 33.3305 27.7244 27.8806 24.0307 15.9996C23.962 15.7746 24.087 15.5309 24.3182 15.4559C24.5495 15.3871 24.787 15.5121 24.8619 15.7434C28.7619 28.3119 40.3428 33.4242 62.3986 32.318C62.6423 32.3055 62.8423 32.4868 62.8548 32.7305C62.8673 32.968 62.6861 33.1742 62.4424 33.1867C60.4799 33.2867 58.5924 33.3367 56.7925 33.3367V33.3305Z" fill="#E9364B"/>
<path d="M10.5435 56.4112H7.25609C3.25618 56.4112 0 53.155 0 49.1489C0 45.1427 3.25618 41.8865 7.25609 41.8865H9.89353C10.131 41.8865 10.3248 42.0803 10.3248 42.3178C10.3248 42.5553 10.131 42.749 9.89353 42.749H7.25609C3.73117 42.749 0.862481 45.6177 0.862481 49.1426C0.862481 52.6675 3.73117 55.5362 7.25609 55.5362H10.5435C10.781 55.5362 10.9748 55.73 10.9748 55.9675C10.9748 56.205 10.781 56.3987 10.5435 56.3987V56.4112Z" fill="#E9364B"/>
<path d="M66.0235 56.4112H62.7736C62.5361 56.4112 62.3423 56.2175 62.3423 55.98C62.3423 55.7425 62.5361 55.5487 62.7736 55.5487H66.0235C69.5484 55.5487 72.4171 52.6801 72.4171 49.1551C72.4171 45.6302 69.5484 42.7615 66.0235 42.7615H63.3861C63.1486 42.7615 62.9548 42.5678 62.9548 42.3303C62.9548 42.0928 63.1486 41.899 63.3861 41.899H66.0235C70.0234 41.899 73.2796 45.1552 73.2796 49.1614C73.2796 53.1675 70.0234 56.4237 66.0235 56.4237V56.4112Z" fill="#E9364B"/>
<path d="M26.9931 14.2434C26.7556 14.2434 26.5619 14.0497 26.5619 13.8122V10.081C26.5619 4.5249 31.0805 0 36.6429 0C42.2053 0 46.7239 4.5249 46.7239 10.081V13.5997C46.7239 13.8372 46.5302 14.0309 46.2927 14.0309C46.0552 14.0309 45.8615 13.8372 45.8615 13.5997V10.081C45.8615 4.99989 41.724 0.862481 36.6429 0.862481C31.5618 0.862481 27.4244 4.99364 27.4244 10.081V13.8122C27.4244 14.0497 27.2306 14.2434 26.9931 14.2434Z" fill="#E9364B"/>
<path d="M25.4869 44.6928C26.4431 44.6928 27.2182 43.9177 27.2182 42.9616C27.2182 42.0054 26.4431 41.2303 25.4869 41.2303C24.5308 41.2303 23.7557 42.0054 23.7557 42.9616C23.7557 43.9177 24.5308 44.6928 25.4869 44.6928Z" fill="#E9364B"/>
<path d="M47.7927 44.6928C48.7488 44.6928 49.5239 43.9177 49.5239 42.9616C49.5239 42.0054 48.7488 41.2303 47.7927 41.2303C46.8366 41.2303 46.0615 42.0054 46.0615 42.9616C46.0615 43.9177 46.8366 44.6928 47.7927 44.6928Z" fill="#E9364B"/>
<path d="M41.9803 66.1798C41.8803 66.1798 41.7803 66.1423 41.6991 66.0735L29.7743 55.7613C29.5931 55.605 29.5743 55.33 29.7306 55.1488C29.8868 54.9675 30.1618 54.9488 30.3431 55.105L42.2678 65.4173C42.449 65.5736 42.4678 65.8485 42.3116 66.0298C42.2241 66.1298 42.1053 66.1798 41.9866 66.1798H41.9803Z" fill="#E9364B"/>
<path d="M30.0556 66.1798C29.9368 66.1798 29.8118 66.1298 29.7306 66.0298C29.5743 65.8485 29.5931 65.5736 29.7743 65.4173L41.6991 55.105C41.8803 54.9488 42.1553 54.9675 42.3116 55.1488C42.4678 55.33 42.449 55.605 42.2678 55.7613L30.3431 66.0735C30.2618 66.1423 30.1618 66.1798 30.0618 66.1798H30.0556Z" fill="#E9364B"/>
</g>
<defs>
<clipPath id="clip0_17_253">
<rect width="73.2796" height="75.7046" fill="white"/>
</clipPath>
</defs>
</svg>
