<svg width="145" height="135" viewBox="0 0 145 135" fill="none" xmlns="http://www.w3.org/2000/svg">
<g clip-path="url(#clip0_2001_20)">
<path d="M11.6015 61.4266C19.5785 80.0623 40.1741 90.6053 58.8289 95.1878C68.0934 97.465 77.28 97.7836 86.5297 95.296C95.4684 92.8922 103.766 88.5728 111.702 83.8792C113.305 82.9304 111.787 80.4749 110.193 81.4209C102.93 85.7229 95.3913 89.6902 87.2608 92.1042C78.1751 94.797 69.2565 94.8253 60.0493 92.704C50.3089 90.4536 40.7325 86.8594 32.3159 81.406C24.0813 76.0657 17.9834 69.1312 12.764 60.9068C12.3856 60.313 11.3 60.7332 11.5983 61.4327L11.6015 61.4266Z" fill="white"/>
<path d="M110.596 82.7003C113.948 86.4043 116.616 90.5244 118.768 95.0249C119.208 95.9568 120.644 95.7871 121.072 94.9597C126.25 84.8938 131.137 74.6717 136.154 64.5272C136.53 63.7663 136.164 62.6236 135.227 62.4894C123.919 60.8864 112.702 58.7922 101.59 56.1671C100.646 55.9432 99.7849 56.7184 99.7988 57.6568C99.8489 62.7065 100.85 67.4989 102.841 72.14C103.582 73.8671 106.407 73.0327 105.66 71.2869C103.787 66.8805 102.815 62.3389 102.73 57.5444L100.939 59.0341C112.072 61.5764 123.299 63.6524 134.604 65.2306C134.293 64.5554 133.985 63.8741 133.673 63.1988C128.68 73.3563 123.55 83.4637 118.725 93.703C119.497 93.6783 120.26 93.6564 121.032 93.6318C118.63 89.0285 115.558 85.0052 111.833 81.3987C110.995 80.5822 109.83 81.8518 110.596 82.7003Z" fill="white"/>
<path d="M12.3279 62.0425C18.3236 64.0246 24.2879 66.1385 30.1169 68.5633C30.9375 68.901 31.8147 68.4318 31.8223 67.4971C31.8789 61.9412 31.7506 56.3802 31.6839 50.8209L29.3311 51.5327C47.0372 74.1496 77.1271 82.9462 104.094 72.7799C106.015 72.056 105.095 68.9816 103.165 69.7083C77.7274 79.3557 48.4626 71.6191 31.4914 50.2015C30.7403 49.2517 29.1153 49.5395 29.1386 50.9133C29.2394 56.4674 29.2753 62.0258 29.4933 67.5801C29.967 67.1922 30.4379 66.7949 30.9116 66.407C24.8976 64.1961 18.8533 62.1879 12.6566 60.552C11.6979 60.2968 11.4046 61.7358 12.3218 62.0392L12.3279 62.0425Z" fill="white"/>
<path d="M49.6018 68.7318C45.27 68.9316 40.9448 70.551 36.6052 71.0282C31.9159 71.5451 27.2002 71.5706 22.4982 71.1028C20.6549 70.9216 19.9861 73.7634 21.8509 73.9482C26.8084 74.4356 31.7606 74.4506 36.6989 73.7463C41.0176 73.1327 46.2969 72.3762 49.9234 69.8115C50.38 69.4849 50.2137 68.6995 49.5957 68.7285L49.6018 68.7318Z" fill="white"/>
<path d="M43.0725 63.0997C41.1217 62.9002 39.1844 62.8799 37.225 62.9887C35.3212 63.0959 33.1044 63.0277 31.3226 63.7401C30.4676 64.0803 30.2386 65.6476 31.3922 65.7724C33.3243 65.9777 35.3762 65.4333 37.3021 65.1971C39.2467 64.9553 41.1857 64.6948 43.109 64.332C43.7169 64.2194 43.6878 63.1632 43.0631 63.1026L43.0725 63.0997Z" fill="white"/>
<path d="M60.5442 72.7993C55.9247 73.7995 51.3933 75.9501 46.8724 77.3943C42.2582 78.8667 37.5587 79.8554 32.8892 81.0949C31.5214 81.4578 31.8538 83.803 33.301 83.5843C38.1566 82.8591 42.9737 81.4171 47.6096 79.831C52.0243 78.3221 57.2087 76.5447 60.942 73.693C61.3836 73.3505 61.1092 72.6794 60.541 72.8054L60.5442 72.7993Z" fill="white"/>
<path d="M70.6352 75.0965C63.1905 81.3437 54.9071 84.9198 45.8448 88.2119C44.1551 88.825 44.9715 91.5232 46.6554 90.8914C55.5121 87.5596 65.6965 83.8669 71.4677 75.8943C71.8979 75.2954 71.2073 74.6126 70.632 75.1026L70.6352 75.0965Z" fill="white"/>
<path d="M81.4243 75.4908C78.1261 79.0058 74.3607 81.9029 70.3729 84.5871C66.816 86.9778 62.5913 90.6304 58.2766 91.3244C56.2742 91.6449 56.7078 94.4588 58.7422 94.093C63.3972 93.2604 67.4339 89.7105 71.1062 86.9435C75.2387 83.8283 79.093 80.3998 82.3621 76.3841C82.8828 75.7476 81.9998 74.8836 81.4304 75.4941L81.4243 75.4908Z" fill="white"/>
<path d="M90.5097 74.9025C87.3125 78.4481 84.0299 81.8463 80.3976 84.9477C76.9868 87.8547 73.0688 90.0286 69.6298 92.8423C70.2412 92.8254 70.8494 92.8147 71.4609 92.7978C71.4337 92.7755 71.4127 92.7564 71.3888 92.7279C71.4013 93.2745 71.417 93.8149 71.4295 94.3614C71.4425 94.3371 71.4677 94.3193 71.4775 94.3011C71.784 93.9332 71.8562 93.4476 71.6118 93.0273C71.6001 93.0054 71.5884 92.9835 71.5766 92.9615C71.2437 92.3999 70.5338 92.2936 69.9889 92.5808C69.9576 92.5953 69.9231 92.616 69.8918 92.6305C69.0557 93.0669 69.0805 94.4963 69.9587 94.8727C71.5257 95.5552 72.5397 94.4943 73.8391 93.6018C76.1515 92.0156 78.3364 90.2438 80.4313 88.3769C84.6465 84.6253 88.4138 80.3365 91.6987 75.7504C92.1867 75.0728 91.0609 74.2823 90.513 74.8964L90.5097 74.9025Z" fill="white"/>
<path d="M97.2459 73.909C96.322 77.3732 93.909 80.6815 91.9591 83.651C89.7578 87.0023 87.2701 90.1141 84.7543 93.2344C83.7026 94.5411 85.5712 96.3553 86.6631 95.0467C89.4921 91.6481 91.9598 87.9309 94.1562 84.092C95.7552 81.3102 98.6554 77.3551 98.2832 74.0029C98.2192 73.4209 97.4075 73.3149 97.2459 73.909Z" fill="white"/>
<path d="M107.675 60.1606C105.927 64.4904 105.418 69.1387 103.946 73.5534C102.188 78.824 99.0692 83.3037 96.8213 88.32C96.0908 89.9473 98.2183 91.0004 99.2109 89.5995C102.105 85.5393 104.411 80.6327 105.966 75.9026C107.595 70.9461 107.555 65.6591 109.107 60.6851C109.364 59.8684 108.003 59.3428 107.672 60.1513L107.675 60.1606Z" fill="white"/>
<path d="M116.352 62.3504C115.259 66.0288 114.383 69.7535 113.072 73.3704C111.785 76.9293 109.605 80.2997 108.651 83.9358C108.375 84.9926 109.839 85.8081 110.567 84.9613C112.981 82.1468 114.213 78.034 115.329 74.532C116.568 70.6262 117.508 66.5762 117.642 62.4697C117.666 61.6928 116.556 61.6772 116.352 62.3504Z" fill="white"/>
<path d="M125.692 63.4786C123.51 67.3489 122.371 71.9024 120.388 75.9263C118.556 79.6551 115.79 83.0955 114.358 86.9682C113.858 88.3119 115.762 88.9638 116.62 88.1793C119.851 85.2148 121.827 80.0922 123.399 76.0753C124.901 72.2478 126.665 67.8413 126.593 63.6952C126.588 63.2075 125.919 63.0838 125.689 63.4847L125.692 63.4786Z" fill="white"/>
</g>
<defs>
<clipPath id="clip0_2001_20">
<rect width="68.0343" height="112.549" fill="white" transform="translate(137.771 63.7733) rotate(118.167)"/>
</clipPath>
</defs>
</svg>
